<svg width="461" height="506" viewBox="0 0 461 506" fill="none" xmlns="http://www.w3.org/2000/svg">
<path d="M0.486425 156.597L0.736212 155.525L0.368106 154.453L0.788798 153.381L0.815091 152.309L0.683625 151.238L0.460132 150.153L0.368106 149.068L0.617892 148.009L0.959704 146.95L0.617892 145.853L1.03858 144.807L1.34096 143.761L1.26208 142.676L1.11746 141.579L1.22264 140.507L1.59074 139.473V138.389L2.09031 137.381L2.36639 136.347L1.86682 135.186L2.23493 134.153L2.68191 133.145L2.56359 132.022L3.1289 131.065L3.36554 130.031L3.26037 128.96L3.65476 127.939L3.60218 126.88L3.37868 125.821L3.1289 124.775L3.75994 123.703L3.54959 122.656V121.597L3.03687 120.589L2.69506 119.581L3.19463 118.459L2.90541 117.438L2.22178 116.481L2.07717 115.447L2.56359 114.273L2.32695 113.227L1.81424 112.219L1.63018 111.16L1.47242 110.101L1.06488 109.068L0.959704 107.996L0.854531 106.924L1.19634 105.814L1.14376 104.742L0.433839 103.721L0.341812 102.65V101.578L0.223493 100.506L0.880825 99.396L0.302373 98.3497L0.736212 97.2524L0.144613 96.2061L0.617892 95.1216L0 94.0625L0.105173 92.9908L0.315519 91.919L0.473279 90.8472L0.420692 89.7754L0.525865 88.7036L0.473279 87.6318L0.420692 86.56L0.0657332 85.4755L0.565305 84.4164L0.276079 83.3319L0.644185 82.2728L0.15776 81.1755L0.328666 80.1037L0.736212 79.0574L0.328666 77.9601L0.670478 76.9139L0.565305 75.8293L0.670478 74.7575L0.801945 73.673L0.985998 72.5884L1.40669 71.5294L1.44613 70.4321L1.39354 69.322L1.52501 68.2374L1.69592 67.1529L2.39269 66.1449V65.0348L1.99829 63.861L2.62933 62.853L2.55045 61.7301L3.07631 60.7094L3.10261 59.5993L3.65476 58.5913L3.5233 57.4557L3.97028 56.4222L3.94399 55.2994L4.40412 54.2786L4.33839 53.143L4.96943 52.1606L5.19292 51.0888L5.21921 49.9787L5.40327 48.8941L5.85025 47.8734L5.60047 46.6995L6.07374 45.6788L6.34982 44.6197L6.80996 43.599L7.20436 42.5655L7.32268 41.4682L7.20436 40.3198L7.6119 39.2863L7.84854 38.2145L8.32182 37.1937L8.36126 36.0837L8.63734 35.0502L9.08432 34.0549L9.39984 33.0342L9.5839 31.9879L9.54446 30.8906L9.88627 29.8698L10.399 28.8874L10.5173 27.8283V26.731L10.4779 25.6337L11.3193 24.7278L11.3587 23.6432L11.4507 22.5714L11.6216 21.5252L11.6611 20.4406L12.0686 19.4326L12.7785 18.4884L12.5287 17.3528L12.8968 16.3448L13.0809 15.2986L13.2518 14.2523L13.541 13.2188L13.8697 12.198L14.1326 11.1645L14.527 10.1565L14.2247 8.9954L14.5533 7.97465L14.7637 6.92837L15.5393 6.00969V4.89962L16.3807 4.09578L16.3413 2.83259L17.4193 2.24566L18.2738 1.48009L19.2335 0.931439L20.1406 0L21.3633 0.484858L22.4939 0.574175L23.6508 0.523137L24.7814 0.586934L25.9252 0.612453L26.8717 1.4163L27.9629 1.64597L28.9883 2.09255L30.2241 1.86288L31.1312 2.65396H32.3144L33.4056 2.90915L34.4179 3.38125L35.4433 3.81507L36.5871 3.95542L37.4022 4.89962L38.4145 5.3462L39.6108 5.42276L40.5837 5.97142L41.6354 6.36696L42.7134 6.71146L43.4891 7.60462L44.383 8.25535L45.6188 8.34467L46.4339 9.13576L47.3936 9.68441L48.327 10.2713L49.313 10.7945L50.2464 11.4069L51.1404 12.0704L51.7583 13.0657L52.9415 13.3591L53.7303 14.1375L54.2036 15.2603L55.229 15.7579L56.3728 16.1534L56.9907 17.0976L57.8058 17.8377L58.4631 18.7309L59.5411 19.2412L59.8698 20.4151L60.6191 21.2062L61.1581 22.1759L61.9469 22.9415L62.8541 23.6305L63.8006 24.294L64.2607 25.3147L64.4974 26.4886L65.2336 27.3179L66.0487 28.1218L66.3642 29.2063L66.8243 30.2016L67.9024 30.9161L68.3493 31.9369L68.6517 33.0087L68.6123 34.1953L69.3222 35.114L69.48 36.224L69.6903 37.3086L70.2293 38.3038L70.7157 39.3118L70.5974 40.4729L71.2679 41.4426L71.3994 42.54L71.3599 43.6755L71.8332 44.7091V45.8319L72.1619 46.8909L72.2145 48.001L72.8455 48.9962L72.5431 50.1446L72.622 51.2291L72.8324 52.3009L72.8981 53.3855L73.516 54.419L73.1873 55.5418L73.8052 56.5881L73.516 57.6982L73.4897 58.7955V59.88L74.147 60.9518L74.1865 62.0491L73.7658 63.1464L73.4897 64.231L74.0418 65.3411L73.3451 66.4001L73.3714 67.4846L73.253 68.5692L73.6869 69.692L73.7658 70.7893L73.5554 71.8739L72.9638 72.9074L73.2136 74.0302L72.8718 75.0893L73.0953 76.2249L72.5168 77.2456L72.6746 78.3684L72.3854 79.4275L72.1356 80.4865L71.6623 81.5073L71.9121 82.6684L71.4125 83.6891L71.3862 84.7992L71.2022 85.871L70.7815 86.9045L70.2556 87.8997V89.0098L69.6246 89.9795L69.3748 91.0386L69.4668 92.1869L68.7832 93.1439L68.9278 94.2922L68.8621 95.3768L68.047 96.2827L67.7709 97.329L67.9287 98.4773L67.2845 99.4343L67.6131 100.621L66.798 101.54L66.5614 102.586L66.7586 103.734L66.5483 104.793L65.7858 105.725V106.822L65.2467 107.804L64.9444 108.838L65.4308 110.037L64.7077 110.982L64.7472 112.092L64.103 113.061L64.5105 114.235L64.0767 115.243V116.341L63.8138 117.387L62.9987 118.331L62.9592 119.416L63.0513 120.526L62.6306 121.546V122.631L62.2362 123.652L62.039 124.711L62.1836 125.821L61.4737 126.803L61.6577 127.913L61.8944 129.036L61.4079 130.044L61.4737 131.141L61.0793 132.175L60.9478 133.247L61.0793 134.344L60.3825 135.339V136.424L60.2116 137.483L59.8172 138.516L60.3036 139.69L60.0144 140.737L59.6989 141.783L59.5411 142.855L59.265 143.901L58.4894 144.832L58.2133 145.879L58.3316 147.014L57.7532 147.984L57.3719 148.992L57.4114 150.128L57.0301 151.148L56.9644 152.258L56.0967 153.113L55.9521 154.198L55.9784 155.346L54.9792 156.15L54.8346 157.247L54.7689 158.383L53.8618 159.199L53.9143 160.386L53.4016 161.343L52.7969 162.262L52.5471 163.334L51.9292 164.252L51.4822 165.235L50.7197 166.077L50.5357 167.187L49.6811 167.978L49.852 169.254L49.2473 170.173L48.4191 170.976L48.2613 172.112L47.5777 172.98L46.9992 173.847L46.6311 174.83L46.1184 175.736L45.6057 176.642L45.2639 177.637L44.3305 178.313L43.8046 179.206L43.6205 180.367L43.0421 181.337L42.411 182.281L41.2278 182.741L40.5574 183.634L39.8343 184.501L38.6511 184.769L37.8492 185.56L36.9815 186.339L35.864 186.619L34.8254 187.066L33.7474 187.449L32.6299 187.666L31.4599 187.589L30.395 188.176L29.3038 187.666L28.2916 187.985L27.253 187.895L26.2144 188.112L25.189 187.755L24.0583 188.138L22.9277 187.959L21.784 187.819L20.7191 188.406L19.549 188.163L18.5368 188.852L17.4587 189.133L16.3544 189.286L15.2632 189.516L14.0538 189.439L12.7917 190.001L11.4376 190.205L10.307 190.371L9.17635 190.817L8.03259 190.511L6.98086 190.077H5.67935L5.02201 189.044L4.02287 188.355L3.94399 187.117L3.65476 186.071L2.9317 185.076L3.16834 183.953L2.51101 182.97L2.68191 181.86L2.48471 180.801L2.61618 179.704L1.86682 178.709L2.22178 177.586V176.514L1.9457 175.468L1.36725 174.447L1.95885 173.311L1.5513 172.278L1.1832 171.232L1.11746 170.185L1.43298 169.114L0.880825 168.106L1.27522 167.034L0.644185 166.026L0.959704 164.967L0.709918 163.933L0.617892 162.9L0.946558 161.841L0.657332 160.807L1.03858 159.735L0.223493 158.74L0.749358 157.668L0.341812 156.648L0.486425 156.597ZM56.0704 50.7825L55.045 50.3104L54.1247 49.4811L54.3876 48.2434L54.2956 47.1589L54.0458 46.0871L53.704 45.0153L53.4805 43.9435L53.5857 42.8462L53.7697 41.7361L53.257 40.6771L53.5068 39.567L53.6251 38.4569L53.349 37.3851L52.9941 36.3261L52.8758 35.2416L52.9941 34.157L52.6917 33.1235L52.8495 32.0007L52.718 30.9161L51.7714 30.0612L51.6137 29.0022L51.4691 27.9176L50.7197 27.0755L50.5751 25.9654L50.1018 24.983L49.313 24.1919L48.9186 23.1456L48.143 22.3673L47.2227 21.7293L46.2762 21.1551L45.9081 19.9685L44.9483 19.3943L44.107 18.6798L42.9632 18.4246L41.9246 18.0546L41.2673 16.9956L40.2156 16.6383H38.9929L38.0069 16.1534L37.2707 15.1072L36.2321 14.7244L35.0752 14.5968L34.0498 14.1885L33.0243 13.7674L31.8937 13.576L30.8814 13.1295L29.8692 12.6829L29.0278 11.8408L28.0286 11.3687L26.7665 11.4835L25.7543 11.0497L24.9786 10.8838L24.0583 11.2411H22.7568L22.2967 12.3256L21.2318 12.8615L21.1792 14.0481L20.4036 14.9668L20.89 16.0769L20.6665 17.1232L20.3378 18.1694L20.0881 19.2157L20.0486 20.2875L19.8514 21.3465L19.8251 22.4183V23.4901L20.1275 24.5874L19.5885 25.6209L19.8646 26.7055L19.4833 27.7645L19.9566 28.8746L19.7725 29.9464L19.365 31.0054L19.7857 32.1155L19.457 33.1745L19.5885 34.2591L19.5096 35.3309L19.4176 36.4027L19.273 37.4745L18.9049 38.5335L18.9312 39.618L19.0626 40.7026L19.01 41.7744L18.918 42.8462L18.3001 43.8924L18.3921 44.977L18.9049 46.0871L18.379 47.1333L18.5893 48.2307L18.1818 49.2897L18.287 50.3742L17.8663 51.4333L18.1424 52.5306L17.84 53.5896L18.024 54.6742L17.7217 55.7332L17.9583 56.8305L17.485 57.8895L17.4456 58.9613L17.6033 60.0459V61.1304L17.3404 62.2022L17.7874 63.2995L17.5113 64.3586L17.4324 65.4304L17.1564 66.5022L16.9592 67.574L17.0512 68.6585L17.393 69.7558L17.1958 70.8276L17.1695 71.8994L16.8934 72.9712L17.0643 74.0557L16.9986 75.1275L16.762 76.1993L16.6436 77.2711V78.3557L16.9066 79.4402L16.762 80.512L16.4464 81.5838L16.5385 82.6684L16.762 83.7529L17.0117 84.8375L16.3676 85.9093L16.5516 86.9938L16.6699 88.0784L16.7094 89.1629L16.8934 90.2475L16.6962 91.3193L16.1835 92.3911L16.6568 93.4756L16.499 94.5474L16.5385 95.632L16.5911 96.7165L16.5253 97.8011L16.4201 98.8856L16.3807 99.9702L16.2098 101.055L16.7488 102.139L16.6436 103.224L16.6699 104.308L16.1046 105.38L16.4201 106.465L15.9863 107.537L16.6568 108.621L16.1046 109.693L15.9995 110.777L15.8943 111.862L16.4727 112.947L15.8548 114.018L15.8943 115.103L16.1835 116.187L16.3544 117.272L16.5779 118.357L15.9863 119.428L16.0257 120.513L15.8548 121.585L16.4201 122.669L15.8943 123.741L16.2624 124.826L16.3281 125.91L16.1835 126.982L16.1046 128.028L16.3544 129.087L15.7234 130.108L15.6445 131.154L15.9863 132.226L15.8023 133.272V134.331L15.8811 135.39L15.3158 136.386L15.0529 137.406L15.4604 138.516L15.0529 139.524L14.9477 140.571L14.8031 141.617L14.7637 142.676L14.5928 143.761L14.3298 144.832L13.6199 145.777L13.7908 146.95L13.3438 147.958L12.4762 148.839L12.4499 149.962L12.6208 151.123L12.0949 152.118L11.924 153.19L11.6085 154.223L11.9634 155.308L11.385 156.367L11.4507 157.439L11.3324 158.536L11.6085 159.595L12.1081 160.59L12.7259 161.522L12.8311 162.606L12.7654 163.793L13.357 164.724L14.0932 165.566L14.4087 166.638L14.9609 167.582L16.1309 168.093L16.7751 168.948L17.3667 169.79L17.8926 170.811L19.0232 171.015L20.0092 171.487L21.1266 171.614L22.1389 171.13L22.9935 170.504L24.0846 170.211L24.5579 169.19L25.4256 168.373L26.3722 167.595L26.8323 166.472L27.6342 165.566L28.0812 164.558L28.7648 163.678L28.8963 162.517L29.8429 161.764L30.4213 160.833L30.8552 159.825L31.3942 158.868L31.4205 157.681L32.275 156.864L32.2487 155.665L33.0243 154.81L33.5371 153.84L33.9841 152.845L33.8394 151.62L34.2207 150.6L35.0095 149.732L35.6405 148.801L35.4696 147.588L36.4556 146.772L36.7317 145.713L37.1261 144.692L36.9683 143.505L37.1392 142.421L37.5599 141.413L38.3356 140.507L38.2699 139.359L38.7694 138.363L38.6905 137.215L39.3742 136.271L39.3347 135.135L39.7028 134.114L40.0184 133.068L40.5442 132.073L40.3339 130.912L40.8597 129.917L40.886 128.819L41.0569 127.747L41.4513 126.714L41.9509 125.706L41.9115 124.596L42.4768 123.588L42.6477 122.516L42.4636 121.381L43.0552 120.373L42.8186 119.224L42.7923 118.114L43.5285 117.132L43.7126 116.06L43.4628 114.911L44.0281 113.903L43.6205 112.73L44.3567 111.747L44.5277 110.675L44.2516 109.527L44.3962 108.442L45.093 107.447L45.0272 106.337L45.5136 105.316L45.7634 104.257L45.2244 103.071L45.9081 102.075L45.8292 100.965L46.4471 99.9702L46.0132 98.7963L46.4339 97.7628L46.4076 96.6527L46.6837 95.5937L47.4988 94.6367L47.5514 93.5394L47.4725 92.4166L47.9063 91.3831L47.9458 90.2858L48.3533 89.2522L48.59 88.1805L48.4848 87.0449L49.2341 86.0751L49.1027 84.9396L48.9186 83.7912L49.4576 82.7832V81.6731L49.9046 80.6524L50.1018 79.5806L50.0492 78.4578L50.8249 77.488L50.8775 76.3907L51.1273 75.3317L51.5742 74.3109L51.1273 73.1116L51.4428 72.0653L51.7714 71.019L51.9292 69.9345L52.179 68.8754L52.9284 67.9057L53.165 66.8339L52.9809 65.6856L53.4937 64.6776L53.796 63.6185L53.6646 62.4829L53.9406 61.4239L53.8749 60.3011L54.6374 59.3314V58.2213L54.4534 57.0729L55.321 56.1287L55.2947 55.0059L55.1764 53.8703L55.9258 52.9006L55.6497 51.7267L56.0704 50.7825Z" fill="white"/>
<path d="M151.292 104.373L151.397 105.508L151.108 106.554L150.832 107.588L150.464 108.609L150.398 109.693L150.214 110.74L150.201 111.824L149.793 112.845L149.688 113.917L149.636 114.988L149.609 116.06L149.452 117.119L149.32 118.178L149.636 119.276L149.596 120.335L149.425 121.394L149.412 122.465L149.438 123.537L149.294 124.596L149.399 125.668L149.162 126.727L149.254 127.799L149.386 128.858L149.241 129.93L149.452 130.989L149.267 132.073L149.53 133.158L149.438 134.242L149.583 135.34L149.254 136.437L149.412 137.522L149.544 138.606L149.373 139.703L149.438 140.801L149.425 141.885L149.412 142.983L149.517 144.067L149.465 145.165L149.622 146.249L149.649 147.334L149.754 148.431L149.57 149.528L149.793 150.613L150.03 151.685L150.056 152.769L149.622 153.828L149.688 154.9L149.281 155.908L149.425 157.044L149.11 158.09L148.334 158.945L147.861 159.889L147.677 161.012L146.875 161.803L146.336 162.773L145.494 161.981L144.784 161.114L143.785 160.54L143.023 159.723L142.155 159.009L141.406 158.154L140.499 157.49L139.841 156.559L138.868 155.946L138.737 155.015L138.119 154.16L138.448 153.216L138.224 152.131L138.632 151.059L138.435 149.962L138.645 148.89L138.435 147.806L138.763 146.734L138.816 145.649L138.75 144.565L138.619 143.468L138.579 142.383L138.75 141.311L139 140.239L138.75 139.142L139.039 138.07L139.237 136.998L139.145 135.901L139.026 134.817L139.053 133.732L139.263 132.66L139.21 131.576L139.5 130.504L139.618 129.419L139.197 128.322L139.368 127.238L139.592 126.166L139.408 125.081L139.71 124.009L139.802 122.925L139.697 121.84L139.947 120.768L139.92 119.684L139.802 118.587L139.67 117.502L140.17 116.43L140.117 115.346L140.236 114.274L139.986 113.177L139.894 112.092L140.38 111.02L140.341 109.936L140.025 108.838L140.104 107.767L140.617 106.695L140.63 105.61L140.433 104.513L140.472 103.428L140.525 102.331L140.394 101.234L140.459 100.149L140.525 99.0647L140.906 97.9801L140.998 96.8956L140.63 95.7855L140.696 94.701L140.801 93.6164L140.84 92.5191L141.393 91.4601L141.077 90.35L141.472 89.2782L141.156 88.1681L141.564 87.0963L141.209 85.9863L141.353 84.9017L141.55 83.8172L141.708 82.7326L141.721 81.6481L141.84 80.5508V79.4662L141.826 78.3689L141.603 77.2716L141.958 76.187L141.761 75.0897L142.011 74.0052L141.656 72.9079L141.761 71.8233L142.011 70.7388L141.695 69.6414L141.892 68.5569L141.787 67.4213L141.853 66.2985L141.945 65.1756L142.129 64.0656L142.484 62.9938L142.615 61.8837L142.72 60.7609L142.983 59.6636L143.312 58.5918L144.022 57.6476L144.311 56.563L144.377 55.3764L145.113 54.5215L146.099 54.815L146.954 55.4912L147.966 55.8485L148.821 56.5247L149.885 56.7799L150.793 57.4945L151.765 58.1324L152.344 59.1277L153.106 60.0081L153.343 61.1564L153.79 62.1389L154.368 63.0703L154.842 64.0528L155.144 65.0863L155.907 65.9412L156.196 66.9875L156.616 67.9827L156.919 69.029L157.261 70.0625L157.787 71.0195L158.47 71.8999L158.799 72.9334L159.246 73.9158L159.548 74.9621L160.127 75.8936L160.547 76.8888L160.85 77.9351L161.244 78.9431L161.717 79.9128L162.335 80.8315L162.69 81.8395L162.94 82.9113L163.453 83.8682L164.044 84.7996L164.649 85.7183L164.688 86.8667L165.241 87.8109L165.767 88.7551L166.227 89.7375L166.792 90.6817L167.107 91.7153L167.213 92.8381L167.949 93.7057L168.291 94.7265L168.738 95.709L169.211 96.6914L169.605 97.725L169.96 98.7585L170.368 99.792L170.683 100.851L171.459 101.731L171.827 102.778L172.261 103.786L172.327 104.934L172.945 105.878L173.102 107.001L173.944 107.856L174.009 109.017L174.364 110.063L174.719 111.11L175.508 111.99L175.521 113.151L175.968 114.159L176.573 115.116L177.086 116.099L177.651 117.055L177.704 118.229L178.138 119.237L178.453 120.296L179.229 121.177L179.308 122.325L179.965 123.257L180.438 124.265L180.767 125.311L181.148 126.344L181.74 127.301L181.779 128.462L182.384 129.611L183.633 129.483L184.711 129.228L185.46 128.59L185.513 127.608L185.802 126.549L185.894 125.489L185.5 124.43L185.671 123.371L185.631 122.312L185.605 121.253L185.513 120.182L185.473 119.123V118.063L185.763 117.004L185.421 115.945L185.5 114.886L185.881 113.827L185.684 112.756L185.355 111.697L185.565 110.637L185.552 109.578L185.697 108.519L185.421 107.448L185.841 106.401L185.855 105.342L186.052 104.296L186.025 103.212L185.881 102.14L185.697 101.055L185.92 99.9961L186.328 98.9371L186.288 97.8653L186.17 96.7807L186.433 95.7217L186.538 94.6627L186.157 93.5654L186.236 92.4936L186.407 91.4346L186.801 90.3883L186.63 89.291L186.841 88.2319L186.998 87.1729L186.906 86.0883L186.854 85.0166L187.196 83.9575L186.985 82.873L187.143 81.8139L187.406 80.7549L187.314 79.6704L187.537 78.6113V77.5395L187.735 76.4805L187.511 75.3832L187.919 74.3369L188.063 73.2779L188.103 72.2061L188.221 71.1471L187.971 70.0497L188.352 69.0035L188.063 67.9062L188.405 66.8599L188.55 65.8009L188.655 64.7418L188.326 63.6317L188.405 62.5727L188.786 61.5264L189.062 60.4802L188.76 59.3701L189.299 58.3493L189.338 57.2775L189.47 56.2185L189.22 55.1212L189.194 54.0367L189.378 52.9904L189.799 51.9441L189.641 50.8596L189.891 49.8005L189.733 48.716L190.127 47.6825L190.009 46.5979L190.18 45.5389L190.364 44.4033L190.745 43.3187L190.666 42.1321L191.166 41.0858L191.402 39.963L191.836 38.955L192.546 38.1256L193.427 37.5004L194.216 36.7731L195.281 36.62L196.306 36.4414L197.384 36.25L198.344 36.7859L199.435 36.9773L200.434 37.4621L201.052 38.4446L201.88 39.1847L202.879 39.7588L203.405 40.7541L204.431 41.3921L204.72 42.5149L205.259 43.4591L206.022 44.3395L206.429 45.373L206.363 46.5213L206.731 47.5676L206.626 48.6649V49.7495L207.192 50.7958L206.889 51.8931L207.126 52.9649L206.863 54.0494L207.349 55.1212L207.231 56.2058L207.428 57.2775L207.415 58.3621L207.008 59.4467L207.152 60.5184L207.376 61.603L207.244 62.6748L207.389 63.7593L207.27 64.8439L207.284 65.9157L207.52 67.0002L207.165 68.0848L207.428 69.1566L207.717 70.2284L207.507 71.3129L207.678 72.3847L207.533 73.4693L207.56 74.5666L207.77 75.6639L207.402 76.7612L207.533 77.8585L207.52 78.9558L207.376 80.0531L207.862 81.1505L207.809 82.2478L207.744 83.3451L207.809 84.4424L207.796 85.5397L207.428 86.637L207.441 87.7343L207.731 88.8316L207.533 89.9289L207.481 91.0262L207.744 92.1236L207.717 93.2209L207.915 94.3054L207.547 95.4155L207.704 96.5L208.007 97.5974L207.56 98.6947L207.744 99.792L208.007 100.889L207.639 101.987L207.993 103.084L207.941 104.181L207.823 105.279L207.967 106.376L207.849 107.46L207.862 108.545L207.652 109.63L207.875 110.701L207.599 111.786L208.112 112.87L208.033 113.955L207.783 115.04L208.072 116.111L207.941 117.196L207.888 118.28L207.993 119.365L208.007 120.45V121.534L208.151 122.606L207.823 123.69L207.796 124.775L208.112 125.859L208.164 126.944L208.23 128.041L207.836 129.139L207.98 130.236L208.125 131.321L207.809 132.418L208.007 133.515L208.217 134.612L208.112 135.71L208.164 136.794L208.217 137.892L208.191 138.989L208.007 140.086L208.322 141.171L207.901 142.268L208.099 143.365L208.033 144.463L208.191 145.547L207.954 146.645L208.243 147.742L208.099 148.839L207.954 149.924L208.296 151.021L208.02 152.118L208.388 153.203L208.44 154.3L208.362 155.398L208.335 156.495L208.033 157.592L208.151 158.677L208.046 159.774L208.02 160.808L208.23 161.854L207.993 162.875L207.744 163.895L207.954 164.98L207.389 165.924L207.047 166.958L205.969 167.277L204.983 167.417L203.918 167.71L202.998 167.302L201.959 167.404L201.092 166.932L200 166.639L199.001 166.116L197.805 166.141L196.871 165.439L195.872 164.954L194.807 164.61L193.664 164.431L192.875 163.525L191.797 163.194L190.719 162.811L189.772 162.237L188.97 161.433L187.866 161.088L187.143 160.195L186.012 159.838L185.316 158.957L184.369 158.345L183.528 157.63L182.897 156.699L181.989 156.048L181.45 155.053L180.32 154.581L179.899 153.496L179.005 152.807L178.584 151.761L177.638 151.085L176.967 150.204L176.481 149.222L175.863 148.316L175.232 147.41L174.825 146.377L174.443 145.343L173.681 144.501L173.405 143.416L172.853 142.46L171.998 141.668L171.485 140.699L171.341 139.55L170.789 138.606L170.381 137.585L169.855 136.628L169.171 135.735L168.83 134.689L168.304 133.719L167.607 132.839L167.252 131.793L166.7 130.836L166.214 129.866L165.885 128.807L165.49 127.786L164.623 126.982L164.386 125.911L163.926 124.928L163.532 123.907L162.927 122.989L162.519 121.993L162.059 121.011L161.599 120.028L161.178 119.033L160.429 118.178L160.179 117.107L159.929 116.022L159.496 115.04L158.588 114.248L158.339 113.177L157.918 112.181L157.51 111.173L157.142 110.153L156.656 109.183L155.985 108.29L155.591 107.282L155.354 106.197L154.736 105.291L154.303 104.36L153.29 104.092L152.357 104.436L151.292 104.373Z" fill="white"/>
<path d="M237.312 66.9236L238.442 66.9747L239.336 67.7657L240.401 68.1103L241.413 68.5824L242.531 68.9013L243.385 69.6414L244.45 70.1007L244.963 71.198L245.804 71.9126L246.554 72.7037L247.185 73.5968L248.065 74.3113L248.552 75.3066L249.393 76.0977L249.669 77.1822L250.116 78.1774L250.682 79.1344L251.286 80.0658L251.786 81.0483L251.97 82.1456L252.562 83.0898L252.995 84.0851L253.311 85.1313L253.469 86.2414L253.85 87.2749L254.652 88.1298L254.81 89.2399L255.178 90.2606L255.677 91.2431L255.914 92.3149L256.611 93.2208L256.703 94.3564L257.334 95.2751L257.965 96.2065L258.451 97.1762L258.543 98.3246L259.096 99.2816L259.766 100.187L259.924 101.298L260.436 102.267L260.607 103.365L261.488 104.194L261.961 105.176L262.106 106.299L262.369 107.371L262.698 108.417L263.657 109.208L263.907 110.28L264.131 111.365L264.617 112.347L264.946 113.393L265.38 114.389L265.84 115.384L266.405 116.328L267.062 117.247L267.128 118.395L267.759 119.314L267.969 120.411L268.653 121.304L268.942 122.376L269.468 123.333L270.02 124.29L270.283 125.362L270.743 126.344L271.401 127.263L271.427 128.424L271.808 129.445L272.637 130.3L272.847 131.384L273.057 132.469L273.78 133.362L274.346 134.306L274.74 135.327L275.305 136.271L275.384 137.42L276.16 138.262L276.528 139.282L276.922 140.303L277.225 141.362L277.843 142.268L278.329 143.238L278.986 144.131L279.249 145.216L279.801 146.16L280.669 146.708L281.629 146.759L282.391 146.313L282.825 145.496L282.483 144.399L282.549 143.34L282.786 142.294L282.825 141.235L282.865 140.176L283.088 139.117L283.049 138.057L283.391 137.011L283.404 135.952L283.338 134.88L283.627 133.834L283.522 132.762L283.851 131.716L283.706 130.644L283.943 129.598L283.89 128.526L284.377 127.493L284.311 126.421L284.271 125.349L284.574 124.316L284.6 123.244L284.731 122.198L284.85 121.138L284.823 120.067L284.994 119.008L284.929 117.936L285.034 116.877L285.047 115.805L285.389 114.759L285.284 113.687L285.152 112.602L285.244 111.543L285.77 110.523L285.652 109.438L285.98 108.392L285.599 107.294L285.639 106.223L286.178 105.202L286.283 104.143L285.941 103.046L286.335 101.999L286.283 100.928L286.401 99.8685L286.703 98.8222L286.506 97.7377L286.717 96.6914L286.743 95.6196L286.98 94.5733L286.901 93.4888L287.242 92.4553L287.045 91.3707L287.479 90.3372L286.993 89.2271L287.453 88.1936L287.229 87.1091L287.729 86.0755L287.532 84.991L287.821 83.9447L287.611 82.8474L288.018 81.7884L288.123 80.7166L288.084 79.632L287.966 78.5347L287.952 77.4502L288.202 76.3911L288.505 75.3321L288.268 74.2348L288.636 73.1758L288.886 72.1167L288.833 71.0322L288.728 69.9349L288.794 68.8631L289.07 67.804L289.044 66.7067L289.412 65.6604L289.583 64.5887L289.149 63.4786L289.385 62.4068L289.661 61.3478L289.477 60.2504L289.859 59.1914L290.016 58.1324L289.924 57.0351L290.253 55.976V54.8915L290.148 53.8069L290.043 52.7096L290.647 51.6761L290.621 50.5916L290.792 49.5198L290.555 48.4224L290.477 47.3379L291.068 46.2916L291.055 45.2071L290.739 44.1098L290.858 42.9869L291.463 41.9024L291.489 40.7795L291.292 39.644L291.344 38.5211L291.436 37.3983L291.344 36.2499L291.502 35.1271L291.699 34.017L292.278 32.9835L292.646 31.9117L292.711 30.6613L293.303 29.6406L293.987 28.6964L294.591 27.7139L295.525 27.127L296.445 27.1652L297.221 27.9691L298.365 28.186L298.969 29.1302L300.06 29.5257L300.678 30.4061L301.125 31.3758L301.52 32.3328L301.967 33.277L302.216 34.2722L302.506 35.2675L302.742 36.2755L303.163 37.2835L302.874 38.3553L303.189 39.4526L302.979 40.5754L303.439 41.6727L303.373 42.7955L303.124 43.9056L303.518 45.0157L303.308 46.1385L303.465 47.2486L303.452 48.3587L303.426 49.4815L303.347 50.5916L303.097 51.7016L303.15 52.8117L303.281 53.9345L303.268 54.9936L303.242 56.0653L302.795 57.1244L302.9 58.1962L303.334 59.2807L302.966 60.3398L303.163 61.4116L302.874 62.4833L302.992 63.5424L302.703 64.6142L302.953 65.686L302.742 66.7578L302.926 67.8295L302.716 68.8886L302.926 69.9604L302.585 71.0322V72.0912L302.742 73.163L302.755 74.2348L302.585 75.3066L302.953 76.3784L302.755 77.4502L302.716 78.5092L302.519 79.581L302.387 80.6528L302.466 81.7246L302.755 82.7964L302.611 83.8554L302.598 84.9272L302.401 85.999L302.545 87.0708L302.506 88.1298L302.322 89.2016L302.243 90.2734L302.269 91.3452L302.466 92.4297L302.361 93.527L302.111 94.6116L302.177 95.6962L302.348 96.7935L302.532 97.8908L302.019 98.9753L302.164 100.06L302.243 101.157L302.269 102.242L302.401 103.339L302.23 104.424L301.822 105.508L302.19 106.605L302.046 107.703L302.059 108.787L302.085 109.885L302.019 110.969L301.927 112.054L301.875 113.151L301.717 114.236L302.124 115.333L302.019 116.43V117.515L301.559 118.599L301.796 119.697L301.441 120.781L301.94 121.879L301.493 122.963L301.388 124.048L301.296 125.132L301.73 126.242L301.23 127.314L301.244 128.411L301.454 129.509L301.559 130.593L301.73 131.691L301.257 132.775L301.27 133.86L301.125 134.944L301.546 136.054L301.125 137.126L301.401 138.223L301.441 139.321L301.323 140.418L301.257 141.528L301.467 142.638L300.994 143.723L300.954 144.833L301.27 145.943L301.165 147.04L301.23 148.15L301.349 149.26L300.968 150.358L300.836 151.455L301.23 152.565L300.994 153.662V154.772L300.968 155.87L301.02 156.98L301.007 158.09L300.954 159.187L300.573 160.284L300.889 161.407L300.639 162.505L299.968 163.487L299.85 164.597L299.719 165.758L298.943 166.613L298.246 167.506L297.326 168.182L296.603 169.101L295.393 169.28L294.368 169.739L293.25 169.918L292.186 170.262L291.108 170.671L290.03 171.104L288.886 171.092L287.703 170.862L286.598 171.104L285.494 171.436L284.35 171.36L283.22 171.423L282.142 172.036L281.011 172.112L279.893 172.049L278.829 171.602L277.711 171.666L276.738 171.168L275.831 170.607L274.858 170.135L273.951 169.497L273.531 168.476L272.676 167.736L272.203 166.715L271.848 165.618L271.138 164.725L270.743 163.653L270.139 162.696L269.718 161.65L268.89 160.795L268.719 159.634L268.285 158.587L267.746 157.605L267.312 156.559L266.497 155.691L266.352 154.53L265.537 153.675L265.366 152.565L264.998 151.519L264.591 150.511L263.723 149.669L263.263 148.673L263.145 147.538L262.908 146.453L262.054 145.598L262.106 144.412L261.607 143.416L261.225 142.396L260.423 141.528L259.884 140.558L259.529 139.512L259.45 138.364L258.754 137.471L258.478 136.399L257.781 135.48L257.663 134.357L257.005 133.439L256.663 132.392L256.282 131.359L256.059 130.261L255.296 129.381L255.086 128.284L254.507 127.34L254.047 126.332L253.758 125.273L253.548 124.175L252.943 123.231L252.785 122.108L252.338 121.1L251.641 120.194L251.523 119.071L250.787 118.178L250.208 117.221L250.195 116.047L249.775 115.039L249.025 114.146L248.894 113.049L248.026 112.232L248 111.084L247.526 110.102L246.711 109.298L246.159 108.762L245.449 108.124L244.753 108.8L244.108 109.54L243.951 110.561L244.398 111.658L243.898 112.641L244.003 113.7L243.569 114.695L243.964 115.78L243.701 116.787L243.793 117.834L243.661 118.867L243.109 119.863L243.175 120.909L243.346 121.993L243.109 123.052L243.188 124.124L242.965 125.183L242.899 126.255L243.083 127.34L242.61 128.386L242.82 129.47L243.083 130.555L242.767 131.601L242.886 132.686L242.649 133.745L242.61 134.817L242.767 135.888L242.268 136.935L242.347 138.019L242.268 139.078L242.031 140.137L242.518 141.235L242.386 142.306L242.242 143.365V144.437L242.163 145.509L241.689 146.555L241.624 147.614L241.887 148.699L241.597 149.758L241.479 150.83L241.703 151.914L241.611 152.973L241.781 154.058L241.295 155.104L241.413 156.176L241.689 157.26L241.124 158.307L241.269 159.391L241.492 160.463L241.006 161.522L241.348 162.607L241.229 163.666L241.032 164.737L241.137 165.809L240.94 166.868L240.887 167.94L240.585 168.999L240.677 170.122L240.007 171.053V172.304L239.297 173.21L238.39 173.963L237.982 175.047L237.22 175.927L236.299 175.289L235.326 174.83L234.406 174.256L233.525 173.644L232.592 173.069L232.04 171.921L231.435 170.9L230.659 169.892L230.318 168.884L230.002 167.864L230.226 166.741L229.897 165.733L229.568 164.712L229.805 163.615L229.502 162.594L229.187 161.548L229.292 160.489L229.213 159.442L229.161 158.383L229.213 157.324L229.489 156.278L229.187 155.206L229.739 154.16L229.608 153.075L229.765 152.016L229.66 150.932L230.002 149.885L229.765 148.801L230.002 147.742L230.252 146.683L229.936 145.586L230.331 144.539L229.976 143.442L230.002 142.37L230.16 141.298L230.278 140.239L230.699 139.193L230.646 138.109L230.83 137.049L230.909 135.978L230.672 134.893L230.909 133.834L231.106 132.775L230.712 131.678L231.106 130.631L230.922 129.534L231.396 128.501L231.527 127.429L231.225 126.332L231.606 125.285L231.277 124.188L231.593 123.142L231.619 122.07L231.895 121.011L231.488 119.914L231.935 118.867L232.092 117.795L232.04 116.724L231.737 115.626L232.355 114.593L232.184 113.508L232.04 112.424L232.132 111.365L232.513 110.306L232.211 109.221L232.644 108.175L232.29 107.052L232.658 105.98L232.592 104.883L232.644 103.786L233.013 102.714L232.907 101.617L233.328 100.545L232.815 99.4219L233.354 98.3629L233.144 97.2528L233.578 96.181L233.249 95.0582L233.276 93.9736L233.525 92.8891L233.552 91.7918V90.6945L233.815 89.6227L234.091 88.5381L233.88 87.428L234.275 86.369L234.327 85.2717L233.972 84.1489L234.051 83.0643L234.59 82.0053L234.616 80.908L234.814 79.8234L234.866 78.7389L234.709 77.6288L234.985 76.557L235.037 75.4597L234.853 74.3496L235.169 73.2523L235.353 72.1422L235.681 71.0704L236.234 70.0752L236.733 69.0545L236.667 67.8423L237.312 66.9236Z" fill="white"/>
<path d="M72.2298 336.428L71.7566 337.308L71.6251 338.405L72.0458 339.528L71.4279 340.6L71.6251 341.723L72.0721 342.846L71.257 343.905V345.002L71.1781 346.099L71.6645 347.222L71.5594 348.319L71.7303 349.43L71.349 350.514L71.6382 351.624L71.2701 352.696L71.3227 353.781L70.902 354.852L71.5462 355.962L71.1387 357.034L70.6785 358.106L71.0072 359.203L71.0466 360.288L70.7837 361.36L71.3227 362.457L71.1781 363.541L71.1255 364.626L70.5076 365.698L71.1255 366.795L70.8494 367.867L71.1255 368.964L71.0992 370.049L70.8231 371.121L70.9546 372.205L70.1264 373.264L70.3499 374.361L70.1527 375.446L70.0212 376.531L70.5076 377.628L70.81 378.725L70.1527 379.784L70.5208 380.869L70.1527 381.941V383.012L70.5208 384.097L70.6128 385.169V386.241L70.0475 387.312L70.1527 388.384L69.9292 389.456L70.2841 390.528L69.9555 391.612L70.4156 392.684L70.2578 393.769L70.4813 394.84L70.1658 395.925L70.2973 396.997L70.5602 398.069V399.14L70.4682 400.225L70.9678 401.284L70.3762 402.381L70.5865 403.453L70.6654 404.525L71.1124 405.584L70.9283 406.668L71.3622 407.727L70.6522 408.837L70.7969 409.909L70.8626 410.981L70.7837 412.066L71.2438 413.112L71.0992 414.196L71.6251 415.243L71.2964 416.34V417.412L71.5856 418.471L71.9406 419.53L72.1247 420.602L71.8354 421.699L72.1641 422.758L72.243 423.83L72.1378 424.914L71.796 426.012V427.083L72.4402 428.117L72.0721 429.189L72.0063 430.248L72.1378 431.307L71.8486 432.366L72.2561 433.425L71.704 434.458L71.9669 435.53L72.2298 436.602V437.674L71.5988 438.669L71.6514 439.741L71.888 440.851L71.2964 441.833L71.2175 442.892L70.6128 443.849L71.0466 445.036L70.8363 446.082L70.1001 446.988L69.5348 447.92L69.2587 448.341L69.5742 449.744L68.7591 450.701L67.76 451.416L66.866 452.13L65.7091 452.258L64.5785 452.207L63.5268 451.811L62.5013 451.199L61.489 450.433L61.3576 449.132L60.5293 448.328L60.3321 447.205L59.4907 446.388L59.2673 445.291L58.7151 444.321L58.1761 443.339L58.1103 442.216L57.7685 441.17L57.1769 440.175L57.5582 438.975L57.453 437.891L56.6774 436.895L56.8746 435.773L57.1112 434.663L56.5853 433.604L56.3224 432.519V431.422L56.1121 430.324L56.6642 429.227L56.1384 428.143L56.3093 427.058L56.467 425.973L56.7957 424.889L56.6379 423.804L56.6905 422.72L56.4933 421.635L56.9403 420.551L56.9009 419.466L56.7957 418.382L56.6511 417.297L56.7694 416.212L56.8351 415.128L56.1909 414.043L56.1384 412.959L56.3487 411.874L56.283 410.79L56.2041 409.705L56.3881 408.621L56.2041 407.536L56.5722 406.451L56.4539 405.367L56.2567 404.282L56.559 403.198L56.2698 402.113L56.6379 401.029L56.3093 399.944L56.5459 398.86L56.375 397.775L56.9797 396.703L56.7957 395.619L56.6248 394.534L56.9797 393.462L56.9272 392.378L57.0192 391.293L57.1112 390.209L56.9929 389.124L57.1638 388.052L56.9797 386.968L57.0323 385.883L56.9797 384.799L57.3873 383.727L57.1506 382.63L56.8877 381.532L56.9403 380.448L57.6239 379.389L57.3873 378.291L57.7817 377.22L57.1506 376.11V375.025L57.8606 373.979L57.9394 372.894L57.361 371.784L57.8737 370.725L57.7291 369.628L57.8474 368.543L58.2155 367.471L57.8737 366.374L58.1103 365.302L58.0841 364.218L58.347 363.146L58.1761 362.049L58.6099 360.99L58.2681 359.892L58.8466 358.833L58.0709 357.71L58.6757 356.664L58.2944 355.554L58.9649 354.508L58.6231 353.398L58.9649 352.339L58.6099 351.229L59.1358 350.17L59.2147 349.085L59.0963 347.988L58.8729 346.878L58.794 345.78L59.0963 344.709L59.4907 343.637L59.0963 342.514L59.5696 341.455L59.8851 340.383L59.7537 339.286L59.5433 338.176L59.6091 337.091L59.9509 336.019L59.8589 334.922L60.3453 333.863L60.5556 332.791L59.872 331.643L60.1744 330.571L60.5425 329.499L60.2401 328.376L60.7528 327.317L60.9369 326.233L60.766 325.123L61.1998 324.064L61.1735 322.966L60.9895 321.856L60.7923 320.746L61.6336 319.726L61.5548 318.628L61.752 317.544L61.3707 316.421L61.2261 315.311L62.0543 314.29L62.0018 313.193L61.5153 312.057L61.6599 310.973L62.5276 309.952L62.5539 308.867L62.2515 307.744L62.3173 306.66L62.4093 305.575L62.199 304.465L62.3304 303.381L62.4487 302.296L63.0666 301.25L63.2244 300.165L62.6328 299.017L62.738 297.932L62.922 296.861L62.9746 295.776L63.8949 294.755L63.4084 293.62L64.0658 292.586L63.5531 291.451L64.2367 290.417L63.6845 289.269L63.9343 288.197L64.3024 287.138L64.5916 286.066L64.6442 284.982L64.8677 283.91L64.9072 282.825L64.9334 281.728L64.6048 280.605L65.249 279.572L64.986 278.449L65.4593 277.403L64.9597 276.254L65.2095 275.182L65.7091 274.136L65.2884 273.001L65.7091 271.954L65.6171 270.844L65.7617 269.76L65.9194 268.675L66.1429 267.603L66.6162 266.557L66.6557 265.46L66.5768 264.35L66.7082 263.265L66.8792 262.193L67.6417 261.185L67.6022 260.088L67.0895 258.927L67.7468 257.919L67.5891 256.796L68.1281 255.775L68.0886 254.665L68.6408 253.644L68.4042 252.522L68.8117 251.488L68.6671 250.391L69.0746 249.357L68.8774 248.247L69.4822 247.239L69.6005 246.167L69.4953 245.07L69.5874 243.998L69.9818 242.965L69.6399 241.804L70.2841 240.872L70.9152 239.992L71.8749 239.494L72.8609 239.188L73.8206 238.767L74.8329 238.193L75.9898 238.257L77.1204 238.129L78.2773 238.269L79.3947 237.925L80.5385 237.848L81.6954 237.963L82.8392 237.938L83.9698 237.772L85.0741 237.351H86.2179L87.3879 237.568L88.5054 237.325L89.6097 236.942L90.714 236.534L91.9235 237.095L93.0278 236.751L94.1453 236.47L95.2759 236.279L96.3802 235.922L97.5371 235.985L98.694 236.406L99.7589 235.781L100.876 235.896L101.981 235.832L103.098 235.794L104.202 235.909L105.294 236.113L106.385 236.279L107.45 236.623L108.659 236.228L109.724 236.572L110.815 236.815L111.696 237.708H112.866L113.734 238.512L115.048 238.231L115.798 239.214L116.731 239.788L117.638 240.387L118.927 240.362L119.492 241.497L120.425 242.046L121.517 242.416L122.516 242.927L123.541 243.424L123.922 244.611L124.751 245.313L125.382 246.206L126.617 246.576L126.88 247.762L127.906 248.349L128.642 249.166L129.155 250.136L129.681 251.08L130.522 251.871L130.443 253.121L130.89 254.091L131.771 254.895L132.073 255.941L132.547 256.924L133.072 257.906L132.875 259.08L132.967 260.165L133.782 261.109L133.651 262.232L133.835 263.316L133.966 264.413L134.203 265.498L134.321 266.595L134.374 267.693L133.927 268.815L134.519 269.9L134.4 271.01L133.756 272.107L134.072 273.205L134.571 274.315L134.216 275.412V276.509L133.94 277.594L134.361 278.73L133.638 279.789L133.585 280.886L133.23 281.958V283.042L133.427 284.152L133.677 285.275L133.243 286.321L132.507 287.304L132.468 288.388L132.547 289.511L132.021 290.519L131.718 291.566L132.192 292.778L131.902 293.824L131.469 294.832L130.64 295.738L130.719 296.886L130.167 297.856L129.694 298.838L129.602 299.948L129.444 301.046L128.629 301.913L128.681 303.1L128.142 304.057L127.419 304.937L127.235 306.035L126.552 306.928L126.197 307.961L125.539 308.855L125.487 310.041L124.488 310.756L123.87 311.662L123.397 312.644L122.779 313.537L122.7 314.749L121.701 315.426L121.622 316.651L120.675 317.352L119.978 318.194L119.334 319.075L119.255 320.351L118.624 321.257L117.559 321.856L116.626 322.545L116.429 323.809L115.14 324.179L114.47 325.059L113.668 325.825L113.3 327.011L112.616 327.917L111.696 328.581L110.487 328.912L109.908 329.933L108.883 330.444L108.238 331.439L107.042 331.694L106.306 332.6L105.28 333.072L104.268 333.57L103.124 333.812L102.362 334.769L101.205 334.948L100.258 335.598L99.233 336.058L98.1024 336.249L96.9324 336.287L95.9332 336.861L94.7369 336.747L93.6588 337.015L92.6728 337.64L91.5159 337.372L90.5037 337.997L89.4388 338.342L88.295 337.818L87.2038 337.87L86.1258 338.38L85.0347 337.946L83.9172 338.584L82.8655 337.895L81.7743 337.818L80.6305 338.214L79.5262 338.112L78.5402 337.372L77.4096 337.448L76.4105 336.9L75.3587 336.594L74.0967 337.117L73.1764 336.313L72.2035 336.377L72.2298 336.428ZM119.794 265.83L120.241 264.783V263.763L119.663 262.78L120.136 261.721L119.781 260.726L119.19 259.756L119.834 258.659L119.663 257.638L119.558 256.605L118.848 255.622L118.677 254.563L118.177 253.593L118.138 252.483L117.402 251.628L117.178 250.544L116.495 249.702L116.087 248.63L114.825 248.349L114.22 247.418L113.497 246.486L112.327 246.321L111.275 246.014L110.263 245.529L109.093 245.899L108.028 245.695L106.937 245.657L105.806 245.134L104.741 245.848L103.624 245.708L102.546 246.104L101.442 246.218L100.311 246.104L99.233 246.384L98.0367 245.746L96.9718 246.129H95.8543L94.7369 246.18L93.7246 246.844L92.686 247.341L91.4897 246.933L90.4774 247.507L89.3205 247.392L88.2424 247.635L87.2433 248.209L86.1916 248.541L85.1135 248.796L83.904 248.515L82.8523 248.872L81.7217 248.936L80.7489 249.549L79.5919 249.523L78.7243 250.327L77.6988 250.735L76.9626 251.552L75.9503 252.088L75.3324 253.045L74.938 254.104L74.4385 255.086L73.9257 256.082L74.1098 257.243L73.321 258.251L73.4262 259.373L73.4525 260.445L73.8337 261.517L73.5839 262.576L73.9389 263.648L73.1632 264.707L73.229 265.779V266.85L73.0712 267.91L73.4525 268.981L73.229 270.04L73.676 271.112L73.2684 272.171L73.2027 273.243L73.3999 274.315L73.676 275.387L73.7811 276.458L73.4262 277.517L73.6891 278.589V279.661L73.5182 280.72L73.0975 281.779L73.0186 282.851L73.6102 283.923L73.1895 284.982L73.0975 286.053L73.2158 287.125L72.9135 288.184L73.3342 289.256L72.8083 290.353L73.1238 291.451L73.4656 292.548L73.5839 293.645L73.0712 294.743L73.2684 295.84L73.6628 296.937L73.229 298.022L73.321 299.119L72.874 300.191L73.4919 301.339L73.4525 302.449L72.8609 303.483L72.4402 304.516L72.0852 305.563L72.7557 306.749L72.3482 307.783L71.9143 308.829V309.914L71.6777 310.985L71.5988 312.07V313.154L71.7434 314.252L72.0195 315.349L71.3753 316.395L71.6119 317.493L71.165 318.539L71.5594 319.662L71.4936 320.797L72.0195 321.805L72.7163 322.673L73.1764 323.707L74.0046 324.472L74.9643 324.549L75.9372 325.148L77.0152 324.944L77.8829 324.077H79.0135H80.1573L81.0644 323.349L82.0504 322.852L83.1152 322.609L84.1407 322.112L85.3896 322.29L86.2967 321.448L87.4142 321.218L88.5185 320.963L89.6886 320.836L90.6614 320.249L91.7131 319.828L92.6334 319.151L93.8429 319.011L94.8158 318.424L95.736 317.761L96.6168 317.046L97.616 316.497L98.5625 315.872L99.0358 314.698L99.8509 313.958L100.824 313.371L101.586 312.555L102.309 311.713L103.203 311.011L103.795 310.067L104.794 309.454L105.399 308.523L105.925 307.54L106.832 306.839L107.239 305.78L108.173 305.078L108.501 303.98L109.29 303.177L109.724 302.156L110.802 301.505L111.17 300.446L111.538 299.4L112.34 298.583L112.774 297.575L113.313 296.618L113.826 295.649L114.141 294.589L114.693 293.633L114.904 292.535L115.311 291.527L115.601 290.468L116.31 289.55L116.389 288.427L116.429 287.304L116.744 286.258L117.651 285.364V284.242L118.243 283.259L117.822 282.047L117.98 280.975L118.861 280.031L119.084 278.959L118.637 277.785L119.255 276.777L119.216 275.667L119.413 274.595L119.847 273.549L119.558 272.426L119.834 271.355V270.257L120.123 269.185L119.952 268.075L120.373 267.004L119.834 265.894L119.794 265.83Z" fill="white"/>
<path d="M373.827 288.773L374.773 289.692L375.864 290.087L376.706 290.866L377.442 291.708L377.81 292.767L378.389 293.711L379.151 294.655L379.283 295.791L379.269 296.914L379.651 297.947L379.532 299.108L379.861 300.155L380.637 301.099L380.347 302.298L381.136 303.242L381.123 304.378L381.439 305.437L381.268 306.56L381.649 307.619L382.096 308.703L381.623 309.826L382.162 310.924L381.425 312.021L382.043 313.131L381.531 314.228L381.333 315.313L381.347 316.423L381.465 317.533L381.255 318.618L381.675 319.753L381.333 320.838L381.044 321.897L380.9 322.968L381.202 324.091L380.65 325.125L380.676 326.222L380.886 327.332L380.216 328.353L380.571 329.476L380.584 330.573L380.361 331.632L379.848 332.678L380.321 333.814L379.598 334.835L379.979 335.958L379.835 337.029L379.138 338.05L379.795 339.211L379.506 340.27L379.48 341.355L379.453 342.439L379.033 343.486L379.243 344.596L378.836 345.655L378.599 346.714L378.717 347.824L378.888 348.921L378.086 349.942L378.546 351.065L378.375 352.137L377.731 353.17L377.547 354.242L377.928 355.365L377.258 356.398L377.403 357.496L377.797 358.618L376.942 359.626L376.89 360.711L376.745 361.795L377.179 362.931L377.008 364.003L377.113 365.1L376.666 366.146L376.877 367.269L376.43 368.315L376.417 369.4L375.93 370.446L376.495 371.595L376.009 372.641L375.483 373.674L375.72 374.797L375.68 375.882L375.339 376.941L375.786 378.076L375.562 379.148L375.431 380.233L374.734 381.254L375.26 382.389L374.918 383.448L375.102 384.558L374.997 385.643L374.642 386.702L374.694 387.799L373.787 388.794L373.919 389.904L373.643 390.963L373.432 392.035L373.84 393.171L374.063 394.281L373.327 395.302L373.616 396.425L373.169 397.471L373.09 398.555L373.34 399.678L373.327 400.763L373.235 401.847L372.551 402.881L372.538 403.965L372.21 405.024L372.446 406.147L371.986 407.193L372.315 408.316L372.039 409.388L372.118 410.485L371.657 411.532L371.644 412.629L371.763 413.726L371.631 414.811L371.381 415.883L371.736 417.006L370.987 418.026L371.053 419.124L370.987 420.221L371.263 421.331L370.934 422.39L371.211 423.513L370.343 424.534V425.618L370.251 426.703L370.027 427.787L370.343 428.897L370.054 429.969L370.435 431.079L369.962 432.138L369.83 433.223L369.962 434.32L370.185 435.43L370.238 436.515L369.83 437.586L370.027 438.684L370.001 439.768L369.764 440.84L369.304 441.912L369.186 442.996L369.751 444.107L369.304 445.178L369.173 446.263L369.265 447.36L368.949 448.432L369.344 449.529L368.805 450.614L369.107 451.698L369.423 452.796L369.515 453.88L368.989 454.965L369.173 456.062L369.58 457.147L369.173 458.231L369.304 459.316L368.923 460.388L369.62 461.459L369.686 462.544L369.239 463.628L368.989 464.7L368.805 465.772L369.62 466.857L369.331 467.941L368.989 469.013L369.068 470.085L368.87 471.157L368.844 472.241L368.857 473.313L369.041 474.397L369.357 475.495L368.739 476.541L369.015 477.638L368.621 478.697L368.989 479.795L368.7 480.866L368.818 481.938L368.949 483.036L368.621 484.095V485.179L368.91 486.264L368.213 487.272L368.029 488.305L368.515 489.415L368.029 490.411L367.516 491.38L367.779 492.49V493.549L367.503 494.57L367.49 495.642L366.728 496.561L367.017 497.683L366.622 498.679L366.123 499.585L365.334 500.261L364.808 501.09L364.019 501.677L363.217 502.417L362.06 502.596L361.14 503.132L360.233 503.706L359.339 504.318L358.314 504.701L357.551 505.122L356.605 504.625L356.039 503.668L355.737 502.596L355.237 501.626L354.777 500.618L354.606 499.534L354.159 498.513L354.317 497.377L354.041 496.318L353.752 495.246L353.988 494.149L353.647 493.09L353.949 491.993L353.541 490.934L353.699 489.836L353.449 488.777L353.975 487.667L353.686 486.595L353.423 485.524L353.673 484.426L353.528 483.355V482.27L353.502 481.198L353.292 480.126L353.344 479.042L353.068 477.97L353.016 476.886L352.845 475.814L353.147 474.716L352.805 473.657L352.437 472.598L352.385 471.514L352.963 470.404L352.608 469.332L352.897 468.235L352.161 467.188L352.043 466.117L352.661 465.006L352.634 463.922L351.951 462.876L352.358 461.778L352.108 460.707L352.135 459.622L352.411 458.537L351.964 457.453L352.122 456.368L352.016 455.284L352.214 454.199L351.977 453.102L352.345 452.017L351.951 450.933L352.477 449.848L351.648 448.751L352.214 447.679L351.806 446.582L352.437 445.51L352.056 444.413L352.371 443.328L351.99 442.231L352.49 441.159L352.542 440.075L352.411 438.977L352.161 437.88L352.069 436.795L352.332 435.711L352.7 434.652L352.266 433.567L352.7 432.508L352.989 431.449L352.818 430.365L352.582 429.293L352.608 428.221L352.924 427.162L352.805 426.077L353.252 425.018L353.436 423.959L352.7 422.849L352.963 421.79L353.292 420.731L352.95 419.647L353.436 418.588L353.568 417.529L353.357 416.444L353.752 415.385L353.686 414.313L353.463 413.229L353.226 412.144L354.028 411.111L353.923 410.026L354.08 408.967L353.66 407.87L353.476 406.785L354.264 405.752L354.172 404.68L353.647 403.57L353.752 402.511L354.593 401.477V400.405L354.264 399.308L354.291 398.236L354.357 397.165L354.12 396.067L354.225 394.983L354.317 393.898L354.922 392.839L355.053 391.767L354.435 390.632L354.527 389.547L354.685 388.475L354.725 387.378L355.632 386.357L355.119 385.222L355.75 384.188L355.224 383.053L355.882 382.006L355.303 380.884L355.54 379.799L355.895 378.74L356.158 377.668L356.184 376.584L356.381 375.499L356.407 374.415V373.33L356.052 372.207L356.67 371.161L356.381 370.051L356.828 368.992L356.302 367.856L356.526 366.784L356.986 365.738L356.526 364.603L356.907 363.543L356.749 362.472L356.776 361.413L356.749 360.354L356.736 359.295L356.907 358.197L356.578 357.164L356.066 356.194L355.697 355.199L355.29 354.216L355.343 352.979L354.619 352.124L353.463 351.601L353.2 350.452L352.214 349.776L351.753 348.679L350.833 347.951L350.334 346.854L349.256 346.28L348.651 345.272L347.652 344.634L347.047 343.639L346.035 343.052L345.653 341.942L344.917 341.138L344.023 340.449L343.287 339.62L342.814 338.624L341.696 338.063L341.276 337.029L340.684 336.098L340.303 335.052L339.856 334.044L339.159 333.189L338.239 332.449L337.858 331.415L337.319 330.458L337.056 329.386L336.346 328.519L335.899 327.524L335.649 326.439L335.281 325.418L334.781 324.449L334.058 323.555L333.769 322.509L333.664 321.386L333.151 320.417L332.507 319.485L331.836 318.566L332.139 317.316L331.56 316.334L331.048 315.326L330.64 314.292L330.075 313.31L329.917 312.187L330.114 310.962L329.233 310.069L329.036 308.971L328.629 307.938L328.195 306.904L327.879 305.845L327.603 304.761L327.235 303.714L327.038 302.604L326.157 301.647L326.104 300.486L326.078 299.312L326.867 298.292L326.854 297.131L327.787 296.34L327.958 294.859L329.049 295.702L330.009 296.11L330.929 296.556L332.152 296.403L332.678 297.501L333.467 298.062L334.413 298.56L335.189 299.287L336.017 300.053L336.056 301.303L336.687 302.171L337.121 303.179L338.278 303.74L338.37 304.952L339.33 305.641L340.014 306.496L340.487 307.466L341.039 308.41L341.907 309.137L341.933 310.388L342.511 311.306L343.524 311.957L344.023 312.927L344.707 313.769L345.483 314.573L345.653 315.734L346.1 316.729L347.218 317.316L347.56 318.375L348.191 319.255L348.795 320.161L349.492 321.004L350.123 321.884L350.702 322.803L350.886 323.964L351.951 324.576L352.437 325.546L352.49 326.784L353.371 327.511L354.422 328.136L354.751 329.208L355.382 330.101L355.816 331.109L356.828 331.709L356.946 332.934L357.525 333.801L358.051 334.86L359.247 335.23L360.338 334.899L361.153 334.273L361.955 333.852L362.823 333.023L362.876 331.938L362.797 330.828L363.309 329.833L363.585 328.787L363.06 327.6L363.296 326.554L363.664 325.533L364.414 324.576L364.216 323.453L364.65 322.433L365.005 321.412L364.94 320.302L364.926 319.204L365.571 318.235L365.308 317.099L365.636 316.066L366.162 315.07L366.083 313.96L366.53 312.952L366.609 311.868L366.99 310.847L366.701 309.711L367.451 308.754L367.753 307.721L367.884 306.649L368.16 305.603L367.819 304.455L368.502 303.485L368.108 302.324L368.713 301.341L369.015 300.295L369.239 299.249L368.765 298.075L368.923 297.016L369.593 296.046L370.132 295.115L369.856 293.915L370.974 293.277L371.408 292.371L372.065 291.568L372.262 290.406L372.841 289.488L373.827 288.773Z" fill="white"/>
<path d="M411.49 113.175L410.412 113.443L409.413 113.622L408.361 113.788L408.151 114.872V115.919L408.716 116.99L408.217 118.062L408.559 119.134L408.506 120.206L408.559 121.277L408.138 122.349L408.48 123.421L408.388 124.493L408.204 125.565L408.716 126.636L408.164 127.708L408.309 128.78L408.716 129.852L408.532 130.924L408.125 131.995L408.282 133.067L408.427 134.139L408.611 135.211L408.677 136.283L408.506 137.354L408.309 138.426L408.743 139.498L408.138 140.57L408.532 141.642L408.335 142.713L408.164 143.785L408.204 144.857L408.545 145.929L408.637 147L408.217 148.072L408.493 149.144V150.216L408.177 151.288L408.204 152.359L408.559 153.431L408.217 154.503L408.664 155.575L408.69 156.647L408.282 157.718L408.506 158.79L408.611 159.862L408.243 160.934L408.69 162.006L408.743 163.077L408.506 164.149L408.151 165.221L408.374 166.293L408.296 167.365L408.677 168.436L408.401 169.508L408.151 170.58L408.125 171.652L408.164 172.724L408.493 173.795L408.19 174.867L408.48 175.939L408.572 177.036L408.506 178.134L408.585 179.231L408.269 180.328L408.545 181.425L408.177 182.51L408.335 183.607L408.269 184.705L408.243 185.802L408.02 186.899L408.085 187.997L408.361 189.107L408.256 190.204L408.059 191.301L408.138 192.399L407.77 193.419L407.599 194.44V195.563L406.757 196.316L406.665 197.4L406.021 198.23L405.614 199.174L404.904 199.965L404.588 200.947L404.154 202.121L403.168 201.228L402.038 200.947L401.433 199.914L400.276 199.62L399.658 198.663L398.935 197.86L398.133 197.132L397.318 196.405L396.74 195.486L395.833 194.772L395.464 193.738L395.149 192.705L394.82 191.684L394.255 190.714L394.373 189.604L394.15 188.558L393.861 187.499L394.268 186.427L393.992 185.343V184.258L394.163 183.186L394.544 182.14L394.202 181.03L394.728 179.984L394.452 178.886L394.557 177.815L395.07 176.768L394.584 175.658L394.794 174.586V173.502L394.82 172.417L395.123 171.358L394.965 170.274L395.254 169.215L395.412 168.143L395.32 167.058L395.188 165.974L395.754 164.928L395.412 163.83L395.53 162.758L395.99 161.712L396.109 160.64L395.833 159.543L396.306 158.497L396.188 157.412L395.898 156.315L396.516 155.269L396.543 154.197L396.635 153.125L396.319 152.028L396.437 150.956L396.358 149.871L396.674 148.812L396.516 147.728L396.832 146.669V145.597L397.187 144.551L396.766 143.441L397.108 142.394L397.489 141.348L397.305 140.264L397.331 139.192L397.568 138.133L397.226 137.035L397.384 135.976L397.476 134.905L397.975 133.858L397.581 132.761L397.831 131.702L397.686 130.617L397.752 129.546L398.002 128.487L397.962 127.402L398.62 126.368L398.515 125.284L398.712 124.225L398.856 123.153L398.567 122.056L398.396 120.971L398.922 119.938L398.712 118.853L399.04 117.794L399.093 116.722L398.909 115.612V114.515L398.988 113.418L399.474 112.359V111.261L399.724 110.177L399.553 109.067L399.882 107.995L399.645 106.885L399.855 105.8L399.803 104.703L400.132 103.631V102.534L400.066 101.424L400.171 100.326L400.355 99.2419L400.105 98.1319L400.644 97.0728L400.605 95.9755L400.671 94.8782L400.473 93.7682L400.736 92.6836L400.552 91.5735L401.196 90.5273L401.223 89.4299L401.302 88.3326L401.486 87.2481L401.288 86.138L401.525 85.0535L401.275 83.9306L401.657 82.8588L401.788 81.7743L401.735 80.677L401.617 79.5669V78.4696L401.972 77.3978L401.88 76.2877L401.972 75.1904L402.196 74.1059L402.59 73.0468L402.748 71.9623L402.419 70.8267L402.827 69.7677L402.998 68.6831L403.024 67.5858L403.339 66.514L403.142 65.3912L403.629 64.3321L403.523 63.2221L403.405 62.112L403.445 61.0147L403.944 59.9684V58.8711L403.773 57.8376L404.233 56.8934L404.325 55.8854L404.799 54.954L404.496 53.8694L404.628 52.8742L405.114 51.93L405.522 50.9347L406.021 50.016L406.1 48.8039L407.02 48.1277L408.033 47.6683L408.94 47.0941L409.992 46.8007L411.03 46.4817L412.016 46.2648L413.028 46.0223L414.054 45.7416L415.106 46.0861L416.249 45.7799L417.433 45.933L418.576 45.5502L419.759 45.614L420.916 45.4099L422.073 45.193L423.256 45.3206L424.427 45.244L425.597 44.9761L426.714 45.4482L427.818 45.6013L429.002 45.3461L430.053 45.8182L431.052 46.3541L432.223 46.4306L433.327 46.7496L434.313 47.311L435.365 47.7831L436.035 48.7529L437.139 49.1867L437.862 50.0543L438.52 50.9602L439.006 51.9682L439.703 52.8231L440.202 53.8056L440.794 54.7498L440.873 55.8854L441.202 56.9189L441.504 57.9652L441.767 59.0242V60.1215L441.741 61.2061L442.161 62.3161L442.122 63.4135L441.859 64.498L441.754 65.5953L441.622 66.6926L441.267 67.7389L441.136 68.8362L440.584 69.8187L440.347 70.8905L440.124 71.975L439.532 72.932L439.295 74.0293L438.599 74.9225L438.336 76.007L437.678 76.9129L437.258 77.9337L436.324 78.661L435.864 79.669L435.365 80.6515L434.536 81.417L433.918 82.3357L433.209 83.1778L432.485 84.0072L431.854 84.9131L431.079 85.6404L430.461 86.508L429.698 87.2481L428.975 88.0264L428.002 88.5495L427.332 89.3917L426.648 90.2465L425.807 90.9228L424.676 91.2418L423.966 92.0584L422.967 92.5177L422.441 93.564L421.679 94.304L420.575 94.7379L419.891 95.58L419.759 96.7028L419.089 97.5705L419.05 98.6295L418.984 99.6758L418.879 100.748L419.365 101.73L419.51 102.776L419.878 103.81L420.049 104.907L420.522 105.915L420.588 107.038L421.206 107.995V109.143L422.113 109.998L422.086 111.159L422.757 112.091L422.717 113.265L423.375 114.196L423.559 115.293L424.229 116.212L424.308 117.348L424.703 118.368L425.228 119.338L425.833 120.282L426.346 121.252L426.609 122.324L426.819 123.421L427.569 124.301L427.739 125.412L428.016 126.483L428.607 127.428L429.251 128.346L429.725 129.341L430.014 130.413L430.592 131.357L430.803 132.468L431.197 133.501L432.183 134.254L432.538 135.3L432.854 136.372L433.603 137.227L433.826 138.337L434.273 139.332L434.944 140.212L435.22 141.284L435.798 142.216L436.482 143.096L437.179 143.977L437.205 145.176L437.823 146.095L438.257 147.09L439.072 147.906L439.742 148.8L439.782 149.999L440.387 150.918L441.281 151.696L441.754 152.678V153.891L442.319 154.835L443.082 155.677L443.607 156.634L444.12 157.591L444.83 158.458L445.317 159.428L445.816 160.398L445.987 161.533L446.46 162.516L447.42 163.256L447.933 164.226L448.393 165.221L448.932 166.178V167.403L449.813 168.181L449.97 169.33L450.878 170.095L451.009 171.243L451.942 171.996L452.363 173.004L452.705 174.05L453.099 175.071L453.652 176.015L454.085 177.023L454.638 177.968L455.203 178.912L455.992 179.741L456.136 180.839L456.859 181.642L457.096 182.689L457.964 183.441L458.332 184.424L458.529 185.483L459.331 186.274L459.554 187.32L460.107 188.226L460.488 189.196L460.83 190.268L461 191.378L460.856 192.501L460.882 193.598L460.856 194.708L460.54 195.78L460.067 196.788L459.121 197.502L458.568 198.447L458.161 199.582L457.07 200.067L456.281 200.82L455.163 200.845L454.098 200.986L453.099 200.526L451.982 200.488L451.075 199.888L450.049 199.506L449.339 198.689L448.419 198.077L448.064 197.03L447.446 196.112L446.697 195.282L446.066 194.376L445.632 193.356L444.699 192.615L444.291 191.582L443.752 190.625L443.358 189.591L442.924 188.583L442.28 187.678L441.465 186.861L441.044 185.84L440.505 184.883L440.15 183.824L439.479 182.931L438.993 181.949L438.638 180.902L438.191 179.894L437.665 178.937L436.968 178.044L436.574 177.023L436.311 175.939L435.746 174.995L435.088 174.089L434.418 173.183V171.983L433.813 171.052L433.248 170.095L432.748 169.113L432.144 168.181L431.828 167.122L431.749 165.961L430.934 165.119L430.592 164.073L430.106 163.09L429.619 162.108L429.212 161.087L428.844 160.053L428.423 159.033L428.108 157.986L427.253 157.17L426.898 156.149L426.438 155.167V154.005L425.741 153.112L425.623 151.989L424.676 151.211L424.65 150.05L424.295 149.029L423.94 148.009L423.059 147.205L423.099 146.031L422.639 145.048L421.994 144.142L421.429 143.198L420.824 142.28V141.106L420.377 140.123L420.075 139.077L419.22 138.248L419.194 137.099L418.484 136.219L418.011 135.249L417.695 134.216L417.327 133.195L416.709 132.276L416.762 131.102L416.381 130.094L415.684 129.227L415.408 128.206L415 127.236L414.54 126.279L414.593 125.169L414.422 124.123L413.699 123.23L413.633 122.158L413.331 121.15L413.055 120.129L412.7 119.134L412.411 118.126L412.148 117.105L412.213 116.008L411.53 115.102L411.385 114.209L411.346 113.188L411.49 113.175ZM412.003 86.2018L413.278 85.7425L414.488 85.3852L415.723 85.0917L416.88 84.9003L417.919 84.3644L418.471 83.2671L419.602 82.795L419.944 81.685L420.548 80.7663L421.074 79.8093L422.008 79.0948L422.297 77.9975L422.967 77.1298L423.703 76.3005L423.848 75.1139L424.9 74.4631L425.334 73.4551L425.531 72.3195L426.214 71.4519L427.082 70.6736L427.45 69.6401L427.818 68.6065L428.134 67.5603L428.555 66.565L429.172 65.6464L429.804 64.7404L429.843 63.5793L430.829 62.801L430.882 61.6527L431.46 60.7085L431.946 59.726L432.104 58.6414L431.789 57.5696L431.513 56.5744L431.486 55.4388L430.605 54.737L429.777 54.0735L428.949 53.308L427.871 53.0145L426.74 53.2059L425.649 52.8614L424.611 53.3718L423.559 53.5377L422.415 53.3335L421.403 53.7801L420.391 54.1373L419.247 54.0863L418.34 54.8008L417.327 55.1964L416.236 55.4388L415.092 55.694L414.317 56.5234L413.449 57.2251L413.055 58.2842L412.24 59.0497L411.543 59.9429L411.148 60.9892L410.938 62.0737L411.083 63.2221L410.623 64.2811L410.754 65.4167L410.715 66.5268L410.531 67.6113L410.504 68.7214L410.097 69.7932L410.281 70.916L409.834 71.9878L409.9 73.1106L409.768 74.2207L409.729 75.3308L409.545 76.4536L409.702 77.5637L410.136 78.6355L410.228 79.7328L410.294 80.8428L410.662 81.9019L410.701 83.0502L411.096 84.0965L411.845 85.0152L412.016 86.2401L412.003 86.2018Z" fill="white"/>
<path d="M207.585 312.657L207.519 313.691L207.953 314.75L208.124 315.821L208.452 316.842L208.939 317.812L209.11 318.909L209.399 319.968L209.846 320.951L210.49 321.857L210.885 322.865L211.095 323.949L211.502 324.957L212.344 325.787L212.764 326.795L212.883 327.917L213.343 328.9L214.092 329.768L214.145 330.916L214.513 331.937L215.223 332.817L215.88 333.723L216.235 334.756L216.722 335.726L216.893 336.824L217.602 337.704L217.76 338.814L218.299 339.771L218.772 340.753L219.009 341.825L219.312 342.871L220.035 343.752L220.179 344.862L220.744 345.806L221.257 346.776L221.533 347.835L221.967 348.83L222.664 349.723L223.203 350.68L223.637 351.675V352.849L224.334 353.743L224.675 354.776L225.241 355.72L225.753 356.677V357.851L226.424 358.744L226.845 359.739L227.107 360.811L227.633 361.768L228.435 362.61L228.725 363.669L229.093 364.69L229.356 365.762L229.763 366.77L230.381 367.689L230.828 368.684L231.025 369.781L231.669 370.687L232.182 371.644L232.327 372.754L232.853 373.711L233.378 374.668L233.812 375.663L234.207 376.671L234.483 377.73L234.917 378.725L235.837 379.517V380.69L236.573 381.571L236.967 382.579L237.454 383.549L237.533 384.684L238.256 385.565L238.611 386.598L238.9 387.657L239.768 388.474L239.741 389.66L240.307 390.605L241.095 391.459L241.424 392.518L241.595 393.667L242.252 394.573L242.91 395.479L243.606 396.359L244.224 397.278L244.671 398.298L245.105 399.319L246.039 400.046L246.17 401.259L247.077 401.999L247.524 403.019L247.984 404.027L248.55 404.972L249.312 405.839L249.812 406.835V407.996L250.338 408.991L250.561 410.075L250.43 411.198L250.535 412.283L250.877 413.38L250.508 414.465L250.811 415.6L250.574 416.851L249.404 416.251L248.26 416.174L247.143 415.996L246.144 415.396L244.947 415.46L243.856 415.154L243.081 414.477L242.62 413.61L241.845 413.036L241.174 412.155L240.188 411.517L239.689 410.509L239.189 409.501L238.532 408.608L237.835 407.74L236.941 407.013L236.534 405.954L235.692 405.176L235.009 404.295L234.456 403.338L233.799 402.445L233.47 401.361L232.682 400.544L232.406 399.447L231.722 398.566L231.222 397.584L230.71 396.614L230.355 395.568L229.776 394.624L229.027 393.756L228.606 392.735L228.278 391.676L227.725 390.719L227.515 389.622L227.042 388.627L226.292 387.746L226.227 386.598L225.464 385.718L225.214 384.633L224.741 383.638L224.557 382.541L223.992 381.571L223.374 380.627L223.308 379.478L222.611 378.56L222.69 377.373L221.915 376.48L221.849 375.357L221.573 374.311L221.152 373.303L220.666 372.32L220.376 371.274L219.68 370.368L219.456 369.296L219.206 368.237L218.865 367.204L218.233 366.272L218.141 365.149L217.694 364.154L217.129 363.197L217.103 362.062L216.446 361.143L215.999 360.148L215.696 359.101L215.578 357.991L214.829 357.098V355.95L214.158 355.044L213.803 354.023V352.875L212.935 352.02L212.672 350.961L212.239 349.966L211.805 348.97L211.621 347.886L211.042 346.942L210.845 345.857L210.543 344.811L210.017 343.841L209.465 342.884L209.517 341.71L208.781 340.817L208.439 339.796L208.36 338.674L207.992 337.666L207.269 336.798L207.177 335.675L206.586 334.756L205.836 333.902V332.728L205.389 331.758L204.863 330.648L203.772 331.184L202.812 331.337L203.049 332.332L202.905 333.404L203.207 334.45L203.075 335.522L203.22 336.568L203.049 337.64L203.575 338.661L203.404 339.733L203.194 340.804L203.496 341.851L203.601 342.923L203.509 344.007L203.956 345.066V346.151L203.996 347.222L203.667 348.32L204.167 349.379L204.075 350.463L204.337 351.535L204.403 352.607L204.311 353.691L204.482 354.763L204.022 355.873L204.259 356.945L204.206 358.03V359.114L204.6 360.173L204.89 361.232L204.535 362.33L204.863 363.389L204.692 364.473L204.771 365.545L205.074 366.604L205.192 367.676L205.258 368.748L204.942 369.845L205.061 370.917L204.969 372.001L205.258 373.073L205.087 374.158L205.429 375.217L205.363 376.301L205.534 377.373L205.35 378.458L205.468 379.529L205.665 380.614L205.692 381.711L205.639 382.809L205.981 383.893L205.6 385.003L205.744 386.088L205.81 387.185L206.099 388.27L205.981 389.367L206.257 390.451L205.784 391.561L205.876 392.659L205.915 393.756L205.849 394.853L206.139 395.938L206.033 397.035L206.375 398.12L206.139 399.217V400.314L206.296 401.399L206.52 402.484L206.625 403.581L206.415 404.678L206.625 405.763L206.664 406.86L206.572 407.957L206.323 409.055L206.257 410.101L206.559 411.185L206.112 412.193L205.797 413.201L205.534 414.222L204.942 415.115L204.706 416.174L203.864 416.914L203.43 417.897L202.944 418.867L202.247 419.709L201.169 420.053L200.196 420.385H199.066L198.237 419.632L197.291 419.109L196.581 418.28L195.45 417.961L194.609 417.285L194.044 416.328L193.452 415.434L192.887 414.541L191.835 413.954L191.467 412.934L191.217 411.887L190.796 410.93L190.626 409.897L190.428 408.876L190.271 407.843L190.034 406.771L189.718 405.712L190.021 404.602L189.745 403.53L189.903 402.433L189.574 401.361L189.666 400.276L189.508 399.204L189.337 398.133L189.469 397.048L189.39 395.963L189.127 394.892L189.508 393.794L189.534 392.71L189.101 391.638L189.298 390.553L189.508 389.469L189.193 388.397L189.035 387.313L189.061 386.228L188.917 385.143L189.271 384.059L188.917 382.974L189.022 381.89L189.127 380.805L189.337 379.721L189.232 378.636L189.271 377.552L189.14 376.467L189.442 375.383V374.298L189.377 373.213L189.298 372.129L189.39 371.044L189.442 369.96L189.035 368.875V367.791L189.166 366.706L189.14 365.609L189.101 364.511L189.232 363.414L189.127 362.317L189.39 361.22L189.324 360.122L189.193 359.025L189.403 357.928L189.219 356.83L189.469 355.733L189.245 354.636L189.403 353.538L189.285 352.441L189.679 351.356L189.548 350.259L189.429 349.162L189.653 348.065L189.613 346.967L189.666 345.87L189.718 344.773L189.626 343.675L189.732 342.578L189.6 341.481L189.626 340.383L189.574 339.286L189.837 338.202L189.679 337.104L189.495 336.032L189.521 334.961L189.968 333.902L189.797 332.83L190.047 331.771L189.613 330.699L189.587 329.627L190.06 328.568L190.1 327.496L189.705 326.425L190.034 325.366L189.929 324.294L189.995 323.222L190.218 322.163L189.968 321.091L190.113 320.019L190.087 318.948L190.244 317.889L190.113 316.817L190.376 315.758L190.126 314.686L190.494 313.627L189.968 312.542L190.349 311.483L190.073 310.411L190.494 309.352L190.244 308.281L190.455 307.222L190.205 306.15L190.534 305.091L190.573 304.019L190.481 302.947L190.323 301.875L190.257 300.804L190.442 299.745L190.678 298.686L190.389 297.614L190.678 296.555L190.875 295.496L190.77 294.424L190.612 293.352L190.652 292.28L190.928 291.234L190.967 290.162L191.441 289.167L191.796 288.159L191.638 286.998L192.164 286.041L192.795 285.148L193.097 284.089L193.925 283.336L194.622 282.519L195.214 281.613L196.147 281.027L196.936 280.286L197.725 279.521L198.579 278.806L199.789 278.755L200.748 278.258L201.8 277.99L202.786 277.428L203.864 277.046L205.061 277.339L206.165 277.122L207.269 276.676H208.413L209.517 277.237L210.635 277.301L211.792 277.224L212.909 277.441L214 277.735L215.144 277.913L216.196 278.36L217.221 278.857L218.036 279.674L218.97 280.248L220.153 280.452L221.073 281.078L221.928 281.779L222.809 282.443L223.269 283.553L224.32 284.038L224.781 285.071L225.793 285.658L226.121 286.743L227.081 287.432L227.528 288.427L227.844 289.473L228.133 290.507L228.501 291.502L228.698 292.548L228.961 293.582L229.171 294.628L229.566 295.674L229.25 296.784L229.487 297.882L229.158 298.953L229.395 300.102L229.066 301.161L228.501 302.143L228.435 303.304L227.765 304.223L227.318 305.257L226.66 306.163L225.911 307.005L225.07 307.758L224.071 308.306L223.203 309.008L222.322 309.71L221.323 310.233L220.284 310.667H219.088L218.063 311.1L217.063 311.777L215.88 311.649L214.868 311.994L213.803 311.879L212.778 312.108L211.713 311.955L210.687 312.3L209.636 312.223L208.61 312.504L207.677 312.657H207.585ZM196.66 296.044L197.357 296.784L198.461 297.167L199.408 297.741L200.407 298.213L201.458 298.558L202.458 299.119L203.549 299.464L204.719 299.489L205.823 299.119L206.914 298.826L208.045 298.481L208.978 297.792L209.452 296.695L210.161 295.853L211.069 295.1L211.581 294.105L211.726 292.957L212.502 292.051L212.896 291.004V289.856V288.72L213.264 287.827L212.502 288.401L211.371 288.644L210.516 289.397L209.386 289.626L208.439 290.213L207.466 290.749L206.375 291.055L205.323 291.425L204.482 292.191L203.352 292.408L202.431 293.02L201.485 293.582L200.42 293.914L199.434 294.398L198.566 295.126L197.62 295.713L196.66 296.019V296.044Z" fill="white"/>
<path d="M259.435 295.24L260.316 294.564L261.21 293.913L262.367 293.722L263.234 293.046L264.155 292.42L265.141 291.948L266.245 291.77L267.349 291.565L268.414 291.323L269.4 290.851L270.32 290.2L271.464 290.124L272.332 289.345L273.423 289.167L274.541 289.026L275.54 288.593L276.526 288.299L277.577 287.763L278.563 288.312L279.523 288.771L280.457 289.307L281.469 289.703L282.455 290.136L283.599 290.009L284.571 290.8L285.689 290.583L286.767 290.558L287.845 290.532L288.923 290.404L289.962 290.022L291.04 289.958L292.17 289.639L293.327 289.524L294.576 289.741L295.588 289.001L296.706 288.963L297.692 288.439L298.783 288.299L299.887 288.337L300.965 288.695L302.03 288.784L303.121 288.644L304.186 288.784L305.146 289.345L306.303 289.256L307.42 289.703L306.684 290.647L306.474 291.731L305.882 292.612L305.251 293.479L304.607 294.347L303.621 294.883L302.714 295.444L301.886 296.082L301.11 296.861L300.124 297.282L299.033 297.422L298.02 297.703L297.087 298.417L296.009 298.558L294.892 298.277L293.34 298.468L292.249 299.017L291.013 298.838L289.856 299.157L288.989 300.012L288.292 300.918L287.529 301.684L287.069 302.679L286.412 303.623L286.543 304.772L286.11 305.869L286.202 306.915L286.241 307.949L285.991 308.995L285.834 310.041L286.215 311.075L285.873 312.121L286.057 313.167L286.188 314.201L286.018 315.247L286.057 316.293L286.399 317.327L286.557 318.36L286.583 319.407L286.07 320.466L286.412 321.563L286.307 322.66L286.478 323.77L286.596 324.868L286.057 325.978L286.372 327.075V328.185L286.162 329.282L286.294 330.392L286.767 331.49L286.583 332.6L286.504 333.697L286.294 334.807L286.267 335.905L286.504 337.015L286.53 338.112L286.241 339.222L286.504 340.319L286.596 341.417L286.241 342.527L286.346 343.624L286.465 344.709L286.451 345.78L286.412 346.852L286.215 347.937L286.228 349.008L286.833 350.08L286.307 351.165L286.688 352.237L286.635 353.308L286.714 354.393L286.294 355.477L286.675 356.537L286.596 357.621L286.438 358.706L287.004 359.765L286.438 360.849L286.635 361.921L287.096 362.993L286.938 364.065L286.557 365.162L286.767 366.234L286.964 367.305L287.214 368.365L287.332 369.436L287.214 370.521L287.056 371.605L287.569 372.652L287.004 373.762L287.477 374.821L287.319 375.905L287.214 376.99L287.319 378.062L287.753 379.108L287.924 380.18L287.543 381.277L287.911 382.336L288.003 383.408L287.74 384.505L287.845 385.577L288.305 386.623L288.016 387.721L288.568 388.754L288.686 389.826L288.344 390.936L288.66 391.995L288.857 393.054L288.581 394.164L289.146 395.185L289.304 396.257L289.16 397.354L288.897 398.451L289.225 399.523L289.252 400.608L289.751 401.667L289.567 402.777L289.409 403.887L289.475 404.971L289.633 406.056L290.08 407.115L289.856 408.225L290.251 409.284L290.461 410.369L290.487 411.453L290.685 412.538L290.461 413.648L290.869 414.707L290.606 415.83L290.895 416.901L290.948 417.986L291.053 419.071L290.948 420.181L291.145 421.252L291.565 422.311L291.579 423.409L291.513 424.506L291.723 425.591L291.513 426.701L291.657 427.785L292.144 428.844L291.789 429.967L292.302 431.013L292.196 432.123L292.381 433.195L292.21 434.305L292.499 435.377L292.88 436.449L292.565 437.559L293.051 438.618L292.578 439.754L293.13 440.838L292.801 441.961L292.696 443.071L292.722 444.181L292.814 445.304L292.643 446.414L292.893 447.575L292.459 448.634L291.934 449.629L291.368 450.586L290.895 451.645L289.791 452.117L288.857 452.73L287.845 453.317L286.649 453.151L285.584 453.623L284.44 453.725L283.309 453.547L282.271 453.011L281.048 453.074L280.259 452.168L279.129 451.837L278.327 451.046L278.024 449.91L276.986 449.323L276.631 448.328L276.158 447.396L275.75 446.427L275.697 445.368L275.264 444.385L275.342 443.301L275.29 442.229L274.961 441.195L274.619 440.149L274.988 439.026L274.422 438.018L274.33 436.959L274.58 435.836L274.501 434.777L273.988 433.757L274.278 432.647L273.936 431.613L273.423 430.592L273.857 429.457L273.673 428.41L273.555 427.339L273.016 426.331L272.923 425.259L272.634 424.213L272.753 423.128L272.384 422.094L272.503 420.997L272.306 419.938L272.463 418.854L271.819 417.846L271.977 416.748L272.174 415.651L271.78 414.617L271.596 413.558L271.648 412.474L271.096 411.453L271.07 410.369L270.965 409.297L271.293 408.187L270.689 407.166L270.754 406.081L270.412 405.035L270.294 403.963L270.36 402.879L270.136 401.82L270.636 400.697L270.334 399.651L270.36 398.566L270.334 397.494L269.847 396.461L269.492 395.402L269.873 394.292L269.479 393.245L269.65 392.161L269.545 391.089L269.177 390.043L269.019 388.971L268.94 387.899L269.295 386.802L269.164 385.692L269.308 384.569L269.032 383.459L269.308 382.349L269.006 381.226L269.19 380.116L269.098 378.993L269.426 377.896L269.413 376.773L269.308 375.65L269.387 374.527L269.545 373.417L269.256 372.32L269.781 371.261L269.716 370.164L269.729 369.079L269.479 367.994L269.716 366.91L269.479 365.813L270.11 364.754L270.097 363.669L270.136 362.585L270.294 361.513L270.044 360.415L270.242 359.331L269.939 358.234L270.294 357.162L270.373 356.09L270.268 354.993L270.084 353.908L270.044 352.811L270.36 351.739L270.202 350.654L270.228 349.57L270.412 348.485L270.767 347.414L270.873 346.342L270.452 345.232L270.82 344.16L270.938 343.075L270.886 341.991L271.162 340.919L270.886 339.822L271.32 338.75L271.136 337.665L270.925 336.568L270.899 335.483L271.346 334.412L271.254 333.327L270.991 332.23L271.359 331.158L271.32 330.073L271.661 329.002L271.175 327.892V326.807L271.556 325.735L271.793 324.663L271.964 323.579L271.385 322.482L271.635 321.397L271.938 320.325L271.911 319.241L272.082 318.156L272.122 317.084L272.135 315.987L272.016 314.902L271.806 313.818L272.306 312.759L272.122 311.674L272.437 310.603L272.161 309.518L272.358 308.446L272.214 307.362L271.99 306.341L272.016 305.295L271.675 304.299L271.017 303.47L270.859 302.347L270.176 301.505L269.058 301.186L268.27 300.459L267.349 299.834L266.206 299.91L265.128 299.936L263.997 299.757L262.814 299.604L261.972 298.749L260.829 298.328L260.198 297.346L259.777 296.312L259.435 295.24Z" fill="white"/>
<path d="M140.88 312.479L141.55 313.487L141.734 314.636L142.549 315.452L143.193 316.358L143.443 317.455L143.995 318.4L144.587 319.331L145.139 320.288L145.573 321.296L146.165 322.228L146.625 323.223L146.73 324.358L147.427 325.252L147.86 326.247L148.11 327.319L148.386 328.378L149.07 329.296L149.359 330.343L149.662 331.389L149.714 332.499L150.411 333.43V334.54L151.003 335.523L151.187 336.595L151.45 337.654L151.502 338.751L151.818 339.797L152.186 340.831L152.225 341.941L152.291 343.038L152.856 344.021L152.883 345.131L153.251 346.164L153.316 347.262L154 348.218L153.947 349.341L154.079 350.426L154.46 351.459L154.854 352.48L155.012 353.565L155.144 354.649L155.63 355.657L156.051 356.678L156.314 357.737L156.261 358.86L156.59 359.906L156.932 360.94L157.234 361.986L157.142 363.122L157.589 364.13L158.049 365.138L158.365 366.184L158.43 367.281L158.509 368.378L158.641 369.463L158.969 370.509L159.469 371.517L159.443 372.64L160.061 373.61L160.139 374.707L160.179 375.817L160.481 376.863L160.744 377.922L161.428 378.879V380.002L161.691 381.061L161.941 382.12L162.243 383.167L162.414 384.238L163.005 385.221L162.742 386.395L163.255 387.39L163.544 388.436L163.781 389.495L164.07 390.542L164.53 391.55L164.688 392.634L165.03 393.668L165.201 394.739L165.056 395.888L165.714 396.857L165.779 397.955L166.318 398.95L166.568 400.009L166.713 401.094L166.66 402.216L166.884 403.288L167.357 404.296L167.659 405.343V406.465L168.277 407.435L168.566 408.481L168.593 409.591L169.145 410.587L169.382 411.646L169.644 412.705L169.96 413.751V414.874L170.078 415.958L170.368 417.005L170.854 418.013L171.064 419.084L171.104 420.194L171.34 421.254L172.024 422.21L172.274 423.269L172.221 424.405L172.51 425.451L173.102 426.434L172.957 427.557L173.128 428.616L173.654 429.598L174.114 430.593L174.246 431.652L174.509 432.699L174.43 433.796L174.903 434.804L174.785 435.901L175.048 436.948L175.232 438.007L175.166 439.091V440.163L175.574 441.196L175.363 442.281L175.587 443.327L175.744 444.386L175.639 445.458L175.692 446.517L176.007 447.576L176.152 448.635V449.707L175.731 450.779L175.981 451.889L174.943 451.481L173.891 451.238L172.865 450.894L172.116 450.026L171.064 449.72L170.183 449.133L169.447 448.367L168.593 447.755L167.567 447.257L167.002 446.339L166.45 445.433L166.069 444.45L165.635 443.506L165.069 442.613L164.701 441.592L164.596 440.495L164.044 439.538L163.65 438.53V437.42L163.242 436.412L162.861 435.391L162.572 434.345L162.335 433.298L162.23 432.214L161.954 431.168L161.204 430.236L161.375 429.088L160.81 428.118L160.6 427.072L160.297 426.051L160.416 424.941L159.877 423.971L159.719 422.925L159.64 421.853L158.969 420.909L159.219 419.773L158.851 418.765L158.273 417.808L158.207 416.737L158.325 415.627L157.957 414.619L157.589 413.611L157.195 412.615L156.905 411.595L156.748 410.434L155.643 410.536L154.618 411.148L153.382 410.893L152.343 411.467L151.187 411.544L150.043 411.658L148.939 411.939L147.9 412.475L146.809 412.807L145.612 412.705L144.561 413.19L143.456 413.445H142.286L141.116 413.751L140.038 414.376L138.789 414.453L137.856 415.218L136.87 415.741L135.726 416.099L135.016 417.005L134.385 417.923L133.531 418.74L133.478 419.914L133.268 420.986L132.939 422.057L132.584 423.091L132.742 424.15L132.637 425.196L132.939 426.255L132.663 427.289L132.413 428.322L132.361 429.369V430.415L132.637 431.461L132.334 432.495L132.558 433.541L132.61 434.587L132.505 435.633L132.532 436.641L132.177 437.624L132.308 438.645L131.808 439.563L131.664 440.559L131.033 441.554L130.178 442.37L129.074 442.753L127.917 442.932L126.655 442.894L125.63 442.179L124.946 441.184L124.275 440.303L123.92 439.244L123.329 438.326L122.487 437.535L122.264 436.412L121.396 435.633L120.989 434.6L120.371 433.694L120.082 432.648L119.569 431.703L119.109 430.708L119.332 429.611L118.99 428.552L119.516 427.518L119.227 426.421L119.674 425.413L119.924 424.38L120.003 423.321V422.223L120.213 421.151L120.016 420.029L120.305 418.957L120.555 417.885L120.713 416.8L120.581 415.69L121.002 414.631L121.054 413.534L120.976 412.424L121.462 411.378L121.291 410.255L121.344 409.158L121.541 408.073L121.935 407.014L121.686 405.891L122.211 404.845L122.027 403.722L122.185 402.637L122.698 401.591L122.33 400.443L122.58 399.371L122.658 398.274L122.737 397.176L123.066 396.117L122.987 395.007L123.316 393.948L123.526 392.877V391.779L123.46 390.669L124.026 389.636L123.789 388.526L123.96 387.467L124.433 386.433L124.604 385.374L124.433 384.264L124.92 383.243L124.893 382.159L124.709 381.049L125.327 380.041L125.432 378.969L125.59 377.91L125.393 376.8L125.577 375.741V374.656L125.958 373.623L125.906 372.525L126.274 371.492L126.366 370.42L126.76 369.386L126.484 368.264L126.878 367.23L127.312 366.209L127.247 365.112L127.378 364.04L127.694 362.994L127.496 361.871L127.746 360.825L127.943 359.766L128.495 358.771L128.272 357.635L128.614 356.601V355.504L128.798 354.445L129.153 353.412L129.258 352.34L129.968 351.37L130.021 350.286L130.336 349.252L130.612 348.206L130.507 347.083V345.986L131.125 345.016L131.099 343.906L131.546 342.898L131.769 341.839V340.741L131.966 339.682L132.216 338.636L132.821 337.666L133.018 336.607L133.425 335.599L133.478 334.502L133.964 333.507V332.397L134.359 331.389L134.53 330.317L135.043 329.335L135.279 328.275L135.437 327.204L135.752 326.17L136.147 325.162L136.186 324.052L136.896 323.133L137.12 322.074L137.435 321.041L137.54 319.995L138.053 319.089L138.224 318.055L139.092 317.302L139.473 316.345L139.894 315.414L140.406 314.521L140.604 313.475L141.024 312.416L140.88 312.479ZM138.329 338.585L138.29 339.58L137.751 340.627L137.935 341.737V342.834L137.514 343.88L137.448 344.965V346.049L137.409 347.134L137.277 348.206L137.343 349.278L137.277 350.349L136.844 351.396L137.067 352.48L137.028 353.552L136.804 354.611L136.62 355.67L136.883 356.755L136.752 357.814L136.66 358.885L136.318 359.944L136.673 361.042L136.344 362.101L136.607 363.185L136.489 364.257L136.436 365.329L136.186 366.388V367.46L136.252 368.532L135.976 369.591L135.739 370.65L136.002 371.734L135.713 372.793L135.779 373.865L135.529 374.924L135.91 376.021L135.542 377.08L135.358 378.139L135.437 379.211L135.516 380.283L135.358 381.342L135.174 382.401L135.358 383.486L135.463 384.557L135.424 385.629L135.056 386.688L135.082 387.76L135.108 388.832V389.904L134.688 390.988L134.832 392.098L134.99 393.208L135.043 394.306L134.872 395.416L134.753 396.526V397.649L135.016 398.733L135.529 399.754L135.608 400.902L136.568 401.808L137.738 402.165L138.908 402.216L140.038 402.012L141.182 401.859L142.26 401.298L143.43 401.413L144.574 401.247L145.718 401.081L146.848 400.851L147.992 400.711L148.952 400.149L150.135 400.328L151.016 399.652L151.844 399.001L152.488 398.197L152.856 397.24V396.207L153.067 395.199L153.014 394.165L153.053 392.928L153.264 391.613L152.62 390.644L152.58 389.546L152.067 388.551L151.844 387.492L151.712 386.407L151.791 385.285L151.594 384.213L151.134 383.205L150.845 382.159L150.871 381.036L150.253 380.053L149.99 378.994V377.884L149.464 376.889L149.241 375.83L148.991 374.771L148.689 373.725L148.715 372.615L148.623 371.53L148.36 370.471L147.9 369.463L147.703 368.391V367.281L147.479 366.209L146.822 365.24L146.598 364.181L146.677 363.058L146.414 361.999L145.849 361.003L146.007 359.855L145.836 358.783L145.31 357.788L144.837 356.78L144.679 355.708L144.377 354.662L144.403 353.539L143.877 352.544L143.93 351.421L143.575 350.388L143.285 349.341L143.246 348.218L143.141 347.108L142.602 346.088L142.668 344.939L142.299 343.893L141.984 342.834L141.918 341.724L141.682 340.639L141.182 339.606L140.932 338.674L139.71 338.713L138.421 338.598L138.329 338.585Z" fill="white"/>
<path d="M343.522 187.87L342.405 188.061H341.274L340.183 187.691L339.079 187.627L338.001 187.347L336.831 187.551L335.779 187.117L334.688 186.887L333.583 186.696L332.518 186.364L331.546 185.803L330.52 185.382L329.574 184.808L328.456 184.54L327.575 183.851L326.655 183.238L325.906 182.409L324.959 181.847L323.894 181.414L323.368 180.354L322.474 179.716L321.436 179.13L321.041 178.007L320.345 177.126L319.753 176.169L319.438 175.11L319.056 174.051L318.636 172.992L318.78 171.844L318.596 170.734L318.899 169.637L318.544 168.488L319.122 167.531L318.741 166.498L318.767 165.502L318.859 164.494L319.069 163.486V162.491L318.32 161.126L317.715 159.99L318.294 158.97L318.123 157.86L318.346 156.788L318.412 155.703L318.346 154.606L318.859 153.572L318.977 152.501L318.714 151.378L318.938 150.306L319.043 149.234L319.556 148.201L319.385 147.091L319.398 145.993L319.806 144.96L319.885 143.875L319.924 142.791L320.003 141.706L320.174 140.634V139.537L320.305 138.465L320.779 137.432L320.647 136.322L320.752 135.237L321.028 134.178L321.265 133.119L321.094 132.009L321.291 130.95L321.449 129.878L321.843 128.832L321.594 127.709L321.962 126.663L321.804 125.553L321.988 124.481L322.106 123.409L322.409 122.35L322.474 121.266L322.501 120.181L322.829 119.135L323.132 118.076L322.961 116.966L323.289 115.919L323.303 114.822L323.618 113.776L323.329 112.653L323.75 111.607L323.999 110.548V109.45V108.366L324.223 107.307L324.473 106.235L324.381 105.138L324.354 104.04L324.473 102.969L324.88 101.922L324.946 100.838L324.999 99.7659L325.077 98.6813L325.538 97.6478L325.485 96.5633L325.419 95.466L325.485 94.3942L325.801 93.3351L326.103 92.2889L326.353 91.2298L326.418 90.1453L326.313 89.048L326.708 88.0144L326.497 86.9044L326.8 85.8581L327.141 84.8118L327.233 83.7273L327.365 82.6555L327.102 81.5454L327.496 80.4991L327.615 79.4273L327.759 78.3556L327.865 77.2838L328.088 76.2247L327.917 75.1147L328.561 74.1067L328.469 73.0093L328.574 71.9376L328.745 70.8658L328.903 69.794L328.995 68.6839L329.468 67.6631L329.889 66.6424L330.612 65.7748L331.664 65.2771L332.361 64.3712L333.465 64.1033L334.477 63.5674L335.608 63.427L336.739 63.4653L337.843 63.7843L339 63.8608L340.143 63.6439L341.287 63.5419L342.457 63.6822L343.548 63.1846L344.666 62.9549L345.823 62.9422L346.861 62.4063L347.966 62.1256L349.057 61.7938L350.122 61.3855L351.279 61.2452L352.396 60.99L353.461 60.5689L354.447 59.9692L355.525 59.5864L356.616 59.4206L357.668 59.1398L358.641 58.5274L359.732 58.387L360.849 58.5912L361.927 58.5529L363.045 58.3232L364.083 58.8209L365.122 59.076L366.24 59.0888L367.357 59.2164L368.369 59.6757L369.342 60.0713L370.092 60.8113L371.104 61.1814L371.774 62.0745L372.563 62.8018L373.168 63.7077L373.339 64.7795V65.813L373.562 66.8721L373.023 67.829L372.76 68.8498L372.326 69.8067L371.603 70.6106L370.775 71.223L369.855 71.8482L368.856 72.2948L367.817 72.6521L366.634 72.6266L365.687 73.2007L364.623 73.4687L363.623 73.928L362.598 74.3363L361.428 74.2725L360.455 74.8212L359.403 75.1402L358.312 75.306L357.287 75.7144L356.34 76.3651L355.249 76.531L354.171 76.7734L353.08 76.9137L352.015 77.1817L351.003 77.641L349.951 77.9345L348.833 77.9983L347.821 78.4704L346.769 78.8021H345.639L344.6 79.1339L343.548 79.4529L342.484 79.6953L341.392 79.8867L340.288 79.9632L339.197 80.2057L338.25 80.9457L337.054 80.9968L336.292 81.8261L335.568 82.6044L335.213 83.6124L334.674 84.6204L334.885 85.7305L334.793 86.8151L334.661 87.8869L335.095 88.9586L334.648 90.0432L334.793 91.115L335.135 92.1868L334.99 93.2713L334.674 94.3431L334.832 95.4277L334.964 96.4995L335.135 97.5713L335.2 98.6431L335.082 99.7276L334.937 100.799L335.319 101.871L334.832 102.956L335.174 104.028L335.029 105.099L334.898 106.184L334.951 107.256L335.253 108.327L335.345 109.399L335.016 110.484L335.266 111.556L335.279 112.64L335.043 113.712L335.069 114.796L335.384 115.856L335.108 116.94L335.49 118.012L335.529 119.084L335.2 120.168L335.398 121.24L335.503 122.312L335.227 123.396L335.608 124.468L335.674 125.54L335.503 126.624L335.227 127.696L335.424 128.781L335.384 129.853L335.713 130.924L335.503 132.009L335.319 133.081V134.153L335.371 135.237L335.66 136.309L335.424 137.381L335.687 138.452L335.779 139.537L335.753 140.609L335.845 141.681L335.634 142.778L336.002 143.837L335.963 144.96L336.541 145.917L337.304 146.708L338.369 147.04L339.499 147.167L340.59 146.874L341.576 146.3L342.654 145.968L343.588 145.751L344.456 145.368L345.56 145.304L346.612 145.1L347.703 144.807L348.663 145.394L349.741 145.674L350.345 146.593L350.897 147.512L351.081 148.622L351.463 149.681L351.739 150.804L351.252 151.875L351.081 153.024L350.056 153.674L349.438 154.682L348.294 154.989L347.256 155.32L346.23 155.716L345.218 156.15L344.14 156.38L343.167 156.979L342.023 157.171L340.88 157.362L339.762 157.643L338.829 158.179L337.738 158.357L336.844 158.957L336.173 159.761L335.253 160.386L335.029 161.432L334.793 162.427L334.556 163.423L334.228 164.443L334.569 165.477L334.228 166.536L334.701 167.518L335.108 168.45L335.516 169.496L336.646 169.79L337.554 170.3L338.592 170.428L339.67 170.44L340.761 170.619L341.826 170.389L342.917 170.466L344.009 170.364L345.021 169.956L346.086 169.445L347.335 169.432L348.308 168.705L349.399 168.284L350.608 168.08L351.699 167.608L352.607 166.829L353.816 166.562L354.71 165.924L355.604 165.209L356.787 165.286L357.839 165.069L358.877 165.107L360.021 165.094L360.981 165.643L361.954 166.217L362.598 167.11L363.466 167.812L364.018 168.782L364.754 169.624L365.254 170.645L366.24 171.308L366.673 172.354L367.055 173.413L367.791 174.268L368.29 175.225L368.474 176.271L368.935 177.305L368.711 178.402L368.251 179.41L367.291 180.023L366.673 180.98L365.635 181.388L364.662 182L363.623 182.46L362.519 182.766L361.494 183.264L360.271 183.251L359.259 183.774L358.154 184.08L357.063 184.399L356.09 185.037L355.078 185.586L353.882 185.599L352.869 186.16L351.726 186.3L350.727 186.594L349.754 187.053L348.741 187.334L347.703 187.525L346.612 187.372L345.586 187.589L344.521 187.615L343.522 187.87Z" fill="white"/>
<path d="M103.399 50.8323L103.807 51.7254L104.688 52.4272L105.187 53.3842L105.818 54.2518L106.489 55.0939L107.08 55.9871L107.593 56.9313L108.303 57.7606L108.487 58.8452L108.829 59.8277L108.895 60.8612L109.342 61.8692L109.368 62.9282L109.355 63.9872L109.473 65.0335L109.565 66.0798L109.421 67.1388L109.644 68.1979L109.276 69.2569L109.644 70.3159L109.302 71.3877L109.499 72.4595L109.381 73.5313L109.486 74.6159L109.434 75.6877L109.644 76.7594L109.578 77.8312L109.631 78.903L109.96 79.9748L109.697 81.0594L109.723 82.1312L109.841 83.203L110.104 84.2747L110.183 85.3465L109.92 86.4311L109.999 87.5029L109.894 88.5747L110.354 89.6465L110.157 90.731L110.236 91.8028L110.393 92.8746L110.459 93.9464L110.301 95.0182L110.341 96.1027L110.262 97.1745L110.591 98.2463L110.446 99.3181L110.459 100.403L110.209 101.474L110.354 102.546L110.722 103.618L110.262 104.703L110.42 105.774L110.788 106.846L110.393 107.931L110.538 109.003L110.656 110.074L110.591 111.146L110.696 112.218L110.932 113.29L110.696 114.374L110.853 115.446L110.591 116.531L111.077 117.59L110.577 118.674L111.051 119.746L111.09 120.818L111.038 121.902L110.84 122.974L110.853 124.046L110.959 125.143L111.235 126.228L110.801 127.325L111.103 128.41L111.024 129.507L111.103 130.591L111.34 131.676L110.946 132.773L110.972 133.871L111.393 134.955L111.3 136.04L111.34 137.137L110.959 138.234L111.274 139.319L111.406 140.403L111.143 141.501L111.195 142.598L111.3 143.683L111.366 144.767L111.327 145.865L111.471 146.949L111.485 148.046L111.143 149.144L111.432 150.228L111.458 151.313L111.314 152.41L111.222 153.507L111.537 154.592L111.485 155.677L111.458 156.774L111.208 157.833L111.603 158.892L111.353 159.964L111.655 161.023L111.603 162.082L111.616 163.154L111.432 164.213L111.511 165.284L111.616 166.343L111.419 167.402L111.261 168.474L111.577 169.533L111.379 170.592L111.524 171.651L111.366 172.723L111.774 173.859L111.366 174.943L111.024 176.002L110.814 177.1L110.499 178.184L109.854 179.128L109.118 179.983L108.579 180.991L107.909 181.923L107.054 182.714L105.884 183.16L104.78 183.62L103.557 183.658L102.387 183.262L101.638 182.446L100.639 182.025L99.6657 181.553L98.798 180.915L98.167 180.047L97.628 179.128L97.1679 178.21L96.6551 177.317L96.0898 176.411L96.1161 175.352L95.6428 174.369L95.7875 173.31L96.0109 172.238L95.9715 171.166V170.095L95.564 169.023L95.84 167.951L95.8269 166.867L95.84 165.795L95.8006 164.723L95.8926 163.651L95.564 162.579L96.0767 161.508L95.84 160.436L95.8006 159.364L95.8137 158.292L95.7875 157.22L95.6034 156.136L95.6954 155.064L95.6166 153.992L95.6954 152.921L96.0898 151.849L95.6954 150.777L95.8926 149.705L95.6166 148.633L95.6297 147.562L95.7349 146.49L96.0372 145.405L96.0767 144.333L95.8663 143.262L95.8137 142.19L96.0767 141.118L95.7086 140.046L95.6823 138.974L95.9189 137.903L95.6297 136.831L95.6428 135.759V134.687L95.5903 133.603L95.84 132.531L95.9847 131.459L95.9584 130.387L95.748 129.316L95.7875 128.244L96.0109 127.172L96.0372 126.1L95.6297 125.028L95.656 123.957L95.9715 122.885L95.9452 121.8L95.6297 120.728L96.0241 119.657L96.103 118.585L95.8269 117.513L95.6034 116.441L95.6954 115.369L95.6428 114.298L95.9189 113.226L95.656 112.141L95.9452 111.07L95.8532 109.998L95.8269 108.926L96.0504 107.854L96.195 106.782L95.9321 105.698L96.2476 104.639L96.1556 103.554L96.1161 102.482L96.3133 101.411L96.3528 100.339L96.1293 99.2543L96.0767 98.1825L96.1161 97.098L96.5894 96.0517L96.379 94.9672L96.5237 93.8954L96.4448 92.8108L96.4185 91.739L96.9049 90.68L96.7209 89.5954L96.7997 88.5236L97.0232 87.4646L96.9838 86.3801L96.6814 85.2955L96.8918 84.2237L97.0232 83.1647L97.2467 82.0929L97.3388 81.0211L97.2073 79.9365L97.2599 78.8647L97.5491 77.8057L97.3913 76.7212L97.3782 75.6494L97.72 74.5903L97.6937 73.5058L97.6543 72.434L97.7069 71.3494L97.7989 70.2904L98.0092 69.1931L98.075 68.0958L97.6674 66.9602L98.167 65.8884L97.9435 64.7656L98.0487 63.6683L98.0618 62.571L98.4957 61.6012L98.3642 60.5677L98.6797 59.6108L99.1399 58.7048V57.6203L100.008 56.9185L100.428 55.9998L100.757 54.8515L101.519 53.9583L102.427 53.1417L102.926 52.0955L103.399 50.8323Z" fill="white"/>
</svg>
