<svg width="1440" height="48" viewBox="0 0 1440 48" fill="none" xmlns="http://www.w3.org/2000/svg">
<path d="M393.281 48V0.799997H395.681V48H393.281ZM398.081 48V0.799997H400.481V48H398.081ZM402.881 48V0.799997H410.081V48H402.881ZM417.281 48V0.799997H424.481V48H417.281ZM426.881 48V0.799997H429.281V48H426.881ZM431.719 48V0.799997H434.119V48H431.719ZM436.519 48V0.799997H443.719V48H436.519ZM446.119 48V0.799997H453.319V48H446.119ZM460.519 48V0.799997H462.919V48H460.519ZM465.319 48V0.799997H467.719V48H465.319ZM470.156 48V0.799997H477.356V48H470.156ZM479.756 48V0.799997H482.156V48H479.756ZM484.556 48V0.799997H486.956V48H484.556ZM494.156 48V0.799997H496.556V48H494.156ZM498.956 48V0.799997H506.156V48H498.956ZM508.594 48V0.799997H510.994V48H508.594ZM513.394 48V0.799997H520.594V48H513.394ZM522.994 48V0.799997H525.394V48H522.994ZM527.794 48V0.799997H530.194V48H527.794ZM537.394 48V0.799997H544.594V48H537.394ZM547.031 48V0.799997H549.431V48H547.031ZM551.831 48V0.799997H559.031V48H551.831ZM561.431 48V0.799997H563.831V48H561.431ZM566.231 48V0.799997H568.631V48H566.231ZM575.831 48V0.799997H583.031V48H575.831ZM585.469 48V0.799997H587.869V48H585.469ZM595.069 48V0.799997H602.269V48H595.069ZM604.669 48V0.799997H607.069V48H604.669ZM609.469 48V0.799997H616.669V48H609.469ZM619.069 48V0.799997H621.469V48H619.069ZM623.906 48V0.799997H626.306V48H623.906ZM628.706 48V0.799997H635.906V48H628.706ZM638.306 48V0.799997H640.706V48H638.306ZM643.106 48V0.799997H650.306V48H643.106ZM657.506 48V0.799997H659.906V48H657.506ZM662.344 48V0.799997H669.544V48H662.344ZM676.744 48V0.799997H679.144V48H676.744ZM681.544 48V0.799997H683.944V48H681.544ZM686.344 48V0.799997H688.744V48H686.344ZM691.144 48V0.799997H698.344V48H691.144ZM700.781 48V0.799997H703.181V48H700.781ZM705.581 48V0.799997H712.781V48H705.581ZM715.181 48V0.799997H722.381V48H715.181ZM724.781 48V0.799997H727.181V48H724.781ZM734.381 48V0.799997H736.781V48H734.381ZM739.219 48V0.799997H746.419V48H739.219ZM748.819 48V0.799997H751.219V48H748.819ZM753.619 48V0.799997H760.819V48H753.619ZM768.019 48V0.799997H770.419V48H768.019ZM772.819 48V0.799997H775.219V48H772.819ZM777.656 48V0.799997H784.856V48H777.656ZM787.256 48V0.799997H789.656V48H787.256ZM792.056 48V0.799997H794.456V48H792.056ZM796.856 48V0.799997H804.056V48H796.856ZM811.256 48V0.799997H813.656V48H811.256ZM816.094 48V0.799997H823.294V48H816.094ZM825.694 48V0.799997H832.894V48H825.694ZM835.294 48V0.799997H837.694V48H835.294ZM840.094 48V0.799997H842.494V48H840.094ZM849.694 48V0.799997H852.094V48H849.694ZM854.531 48V0.799997H861.731V48H854.531ZM864.131 48V0.799997H866.531V48H864.131ZM868.931 48V0.799997H871.331V48H868.931ZM878.531 48V0.799997H880.931V48H878.531ZM883.331 48V0.799997H890.531V48H883.331ZM892.969 48V0.799997H900.169V48H892.969ZM902.569 48V0.799997H904.969V48H902.569ZM907.369 48V0.799997H909.769V48H907.369ZM912.169 48V0.799997H919.369V48H912.169ZM926.569 48V0.799997H928.969V48H926.569ZM931.406 48V0.799997H938.606V48H931.406ZM941.006 48V0.799997H943.406V48H941.006ZM945.806 48V0.799997H948.206V48H945.806ZM950.606 48V0.799997H953.006V48H950.606ZM960.206 48V0.799997H967.406V48H960.206ZM969.844 48V0.799997H977.044V48H969.844ZM979.444 48V0.799997H981.844V48H979.444ZM984.244 48V0.799997H991.444V48H984.244ZM998.644 48V0.799997H1001.04V48H998.644ZM1003.44 48V0.799997H1005.84V48H1003.44ZM1008.28 48V0.799997H1010.68V48H1008.28ZM1013.08 48V0.799997H1015.48V48H1013.08ZM1017.88 48V0.799997H1025.08V48H1017.88ZM1027.48 48V0.799997H1034.68V48H1027.48ZM1041.88 48V0.799997H1044.28V48H1041.88Z" fill="white"/>
</svg>
