<svg width="7" height="6" viewBox="0 0 7 6" fill="none" xmlns="http://www.w3.org/2000/svg">
<path d="M5.11994 0.43318C4.66667 0.158218 4.13504 0 3.56654 0C2.99804 0 2.46795 0.158218 2.01469 0.43318C1.14811 0.958525 0.568848 1.91091 0.568848 3C0.568848 3.08449 0.573457 3.16743 0.58114 3.25038C0.662574 4.23502 1.21571 5.08141 2.01622 5.56682C2.46949 5.84178 3.00111 6 3.56808 6C4.63594 6 5.57013 5.4424 6.10175 4.60522H5.6869C5.20137 5.2427 4.43466 5.65591 3.56808 5.65591C2.98882 5.65591 2.45412 5.47005 2.01622 5.15361V3.25038H6.55656C6.56424 3.16743 6.56885 3.08449 6.56885 3C6.56885 1.91398 5.98959 0.958525 5.12147 0.43318H5.11994ZM5.11994 0.877112V2.74962H2.01622V0.84639C2.45259 0.529954 2.98882 0.344086 3.56808 0.344086C4.14734 0.344086 4.68511 0.529954 5.12147 0.84639V0.878648L5.11994 0.877112Z" fill="white"/>
</svg>
