<svg width="8" height="8" viewBox="0 0 8 8" fill="none" xmlns="http://www.w3.org/2000/svg">
<path fill-rule="evenodd" clip-rule="evenodd" d="M6.49201 6.55486C6.39167 6.74456 6.37756 6.75553 6.12044 6.75553H5.34908V7.18825L4.60281 6.04376L5.29108 4.85693V5.25359H6.8087C7.05328 5.25359 7.15048 5.20028 7.26336 5.12816L6.49201 6.55486Z" fill="white" stroke="black" stroke-width="0.18" stroke-linecap="round" stroke-linejoin="round"/>
<path fill-rule="evenodd" clip-rule="evenodd" d="M6.80872 5.12793H6.3666L5.61249 3.86271L5.45728 3.59932L5.61249 3.50682L6.71465 2.84521L7.46719 4.03047C7.53147 4.12767 7.5691 4.26877 7.5691 4.38322C7.5691 4.79712 7.17872 5.12636 6.80872 5.12636V5.12793Z" fill="white" stroke="black" stroke-width="0.18" stroke-linecap="round" stroke-linejoin="round"/>
<path fill-rule="evenodd" clip-rule="evenodd" d="M3.96951 2.13185L3.37218 3.20892L3.10879 3.07096L2.06464 2.51282L2.709 1.32286C2.80934 1.13943 2.91752 1.04223 3.10879 1.01244C3.15582 1.0046 3.21226 1.00146 3.27027 1.00146C3.65281 1.00146 3.819 1.14884 3.96951 1.38244C3.97264 1.39341 3.98048 1.40125 3.98362 1.41066L4.1843 1.74617L3.96951 2.13498V2.13185Z" fill="white" stroke="black" stroke-width="0.18" stroke-linecap="round" stroke-linejoin="round"/>
<path fill-rule="evenodd" clip-rule="evenodd" d="M4.5162 2.88606L4.88463 2.64775L4.07722 1.32924C4.03802 1.26653 4.00197 1.21636 3.96904 1.16932C3.9079 1.09407 3.84205 1.04547 3.75269 1H5.47883C5.53684 1 5.57603 1.00784 5.61209 1.03763C5.64502 1.06428 5.67951 1.10818 5.72027 1.18186L6.15141 1.91246L6.61705 1.66004L5.92565 2.88919H4.5162V2.88606Z" fill="white" stroke="black" stroke-width="0.18" stroke-linecap="round" stroke-linejoin="round"/>
<path fill-rule="evenodd" clip-rule="evenodd" d="M1.1364 4.4257C1.1364 4.32849 1.15835 4.23756 1.20538 4.14506L1.53775 3.48972L1 3.20752H2.49568L3.10869 4.18739L3.24979 4.40688L3.10869 4.3379L2.86568 4.21561L2.34987 5.16256H1.94695C1.48602 5.16256 1.13797 4.76591 1.13797 4.42726L1.1364 4.4257Z" fill="white" stroke="black" stroke-width="0.18" stroke-linecap="round" stroke-linejoin="round"/>
<path fill-rule="evenodd" clip-rule="evenodd" d="M4.2107 5.28183V6.75555H2.65388C2.51278 6.75555 2.46261 6.7195 2.38735 6.60034L1.51096 5.16895C1.64735 5.23479 1.78218 5.28339 2.04087 5.28339H4.2107V5.28183Z" fill="white" stroke="black" stroke-width="0.18" stroke-linecap="round" stroke-linejoin="round"/>
</svg>
