<svg width="65" height="41" viewBox="0 0 65 41" fill="none" xmlns="http://www.w3.org/2000/svg">
<path d="M23.69 19.4453L22.7865 22.7248H21.9639L20.8716 18.208H21.6888L22.3846 21.3341L22.4952 21.8789L22.5977 21.3341L23.4634 18.208H24.17L25.0061 21.3341L25.1221 21.9172L25.238 21.3341L26.0417 18.208H26.8454L25.6318 22.7248H24.7418L23.8464 19.4453L23.7682 19.0183L23.69 19.4453Z" fill="black"/>
<path d="M27.1801 20.4589C27.1801 19.2216 27.9541 18.1431 29.3269 18.1431C30.7725 18.1431 31.4791 19.1942 31.4791 20.4589C31.4791 21.7236 30.7536 22.7857 29.3134 22.7857C27.8732 22.7857 27.1801 21.7263 27.1801 20.4589ZM30.7158 20.4589C30.7158 19.5309 30.2654 18.8302 29.3269 18.8302C28.4369 18.8302 27.9434 19.5474 27.9434 20.4589C27.9434 21.3705 28.3695 22.0932 29.3215 22.0932C30.2735 22.0932 30.7185 21.3869 30.7185 20.4589H30.7158Z" fill="black"/>
<path d="M32.9903 21.0166V22.7248H32.246V18.208H34.2444C35.2989 18.208 35.8356 18.7226 35.8356 19.4946C35.8356 20.1571 35.361 20.6197 34.6759 20.7511C34.8782 20.7812 35.0481 20.8305 35.1749 20.9235C35.4257 21.0905 35.5578 21.3944 35.7062 21.9145L35.9327 22.7248H35.1398L34.9321 21.9254C34.738 21.1781 34.56 21.0166 33.7805 21.0166H32.9876H32.9903ZM32.9903 18.8623V20.4664H34.0341C34.7164 20.4664 35.1021 20.1571 35.1021 19.6424C35.1021 19.1278 34.7973 18.8623 34.0664 18.8623H32.993H32.9903Z" fill="black"/>
<path d="M36.9492 22.7248V18.208H37.6935V22.0322H39.9913V22.7248H36.9492Z" fill="black"/>
<path d="M40.8673 22.7248V18.208H42.3479C43.8663 18.208 44.7078 18.9827 44.7078 20.4116C44.7078 21.7557 43.9041 22.7248 42.3857 22.7248H40.8673ZM41.6117 18.8951V22.0377H42.3857C42.917 22.0377 43.3135 21.8898 43.5616 21.5915C43.8178 21.2958 43.9445 20.8989 43.9445 20.4089C43.9445 19.3878 43.4267 18.8924 42.3345 18.8924H41.609L41.6117 18.8951Z" fill="black"/>
<path d="M32.7902 0C15.0307 0 0.583069 9.18131 0.583069 20.4677C0.583069 31.7541 15.0307 40.9354 32.7902 40.9354C50.5497 40.9354 64.9974 31.7541 64.9974 20.4677C64.9974 9.18131 50.5497 0 32.7902 0ZM64.164 20.0461H53.066C52.8961 11.5382 47.5561 4.28954 40.0909 1.37418C53.6755 3.40535 63.8592 10.9798 64.164 20.0461ZM25.4922 1.37692C18.027 4.29227 12.687 11.541 12.5171 20.0489H1.41913C1.72389 10.9825 11.9076 3.41083 25.4922 1.37692ZM1.41913 20.8865H12.5171C12.687 29.3944 18.027 36.6431 25.4922 39.5585C11.9049 37.5273 1.72389 29.9529 1.41913 20.8865ZM32.7929 40.095C29.8694 40.095 27.31 34.3355 26.4038 26.5803H25.5597C26.2743 32.9585 28.084 37.9242 30.425 39.9444C20.9451 38.7783 13.5501 30.7111 13.3451 20.8865H18.3372V20.0489H13.3451C13.5501 10.2243 20.9451 2.15709 30.425 0.990946C28.084 3.01116 26.2717 7.97684 25.5597 14.355H26.4038C27.31 6.59992 29.8694 0.840388 32.7929 0.840388C35.7164 0.840388 38.2758 6.59992 39.182 14.355H40.0262C39.3115 7.97684 37.5018 3.01116 35.1608 0.990946C44.6407 2.15709 52.0358 10.2243 52.2407 20.0489H47.2486V20.8865H52.2407C52.0358 30.7111 44.6407 38.7783 35.1608 39.9444C37.5018 37.9242 39.3142 32.9585 40.0262 26.5803H39.182C38.2758 34.3355 35.7164 40.095 32.7929 40.095ZM40.0909 39.5585C47.5561 36.6431 52.8961 29.3972 53.066 20.8865H64.164C63.8592 29.9529 53.6755 37.5246 40.0909 39.5585Z" fill="black"/>
</svg>
