<svg width="33" height="13" viewBox="0 0 33 13" fill="none" xmlns="http://www.w3.org/2000/svg">
<path d="M15.3938 0.308105H12.562V12.6265H15.3938V0.308105Z" fill="black"/>
<path d="M32.3807 0.308105H29.5489V12.6265H32.3807V0.308105Z" fill="black"/>
<path d="M28.3029 0.308105H25.1475L20.7946 6.17713C20.7191 6.28115 20.5977 6.34138 20.4709 6.34138H19.8587V0.308105H17.0269V12.6265H19.8587V6.59322H20.4709C20.5977 6.59322 20.7191 6.65344 20.7946 6.75746L25.1475 12.6265H28.3029L23.7343 6.4673L28.3029 0.308105Z" fill="black"/>
<path d="M11.2985 0.308105H8.14302L3.79012 6.17713C3.71461 6.28115 3.59324 6.34138 3.46649 6.34138H2.85427V0.308105H0.0224609V12.6265H2.85427V6.59322H3.46649C3.59324 6.59322 3.71461 6.65344 3.79012 6.75746L8.14302 12.6265H11.2985L6.72981 6.4673L11.2985 0.308105Z" fill="black"/>
</svg>
