<svg width="7" height="7" viewBox="0 0 7 7" fill="none" xmlns="http://www.w3.org/2000/svg">
<path fill-rule="evenodd" clip-rule="evenodd" d="M1.46091 2.38914L2.12692 1.29377C2.3971 0.851859 2.67356 0.166995 3.27255 0.0371427C3.71237 -0.0591991 4.10612 0.0203876 4.35954 0.412038L5.0821 1.64982L5.62036 1.34404L5.16588 2.23415L4.0747 2.22787L4.62343 1.91371C4.39933 1.53253 4.23387 1.23932 4.03281 0.883275C3.91134 0.669647 3.76473 0.52304 3.50084 0.558645C3.16783 0.604721 2.93326 0.969144 2.79503 1.19743L1.91539 2.64884L1.46091 2.39333V2.38914Z" fill="white"/>
<path fill-rule="evenodd" clip-rule="evenodd" d="M3.56363 5.87421L2.27768 5.88468C1.75618 5.88887 1.02733 6.01244 0.600077 5.57471C0.285919 5.25218 0.14769 4.87938 0.348751 4.4584L1.02733 3.19549L0.482792 2.90018L1.48391 2.81641L2.04939 3.74631L1.49019 3.44682C1.28075 3.83637 1.11948 4.12959 0.920518 4.48982C0.801138 4.70345 0.752967 4.9066 0.920518 5.10976C1.13205 5.36737 1.56768 5.37365 1.83576 5.37156L3.5385 5.3569L3.55735 5.8763L3.56363 5.87421Z" fill="white"/>
<path fill-rule="evenodd" clip-rule="evenodd" d="M5.55768 2.36601L6.17972 3.48441C6.43104 3.93679 6.88971 4.51694 6.70541 5.09918C6.56927 5.52643 6.30747 5.82803 5.83833 5.85106L4.39949 5.85735V6.47519L3.84866 5.64162L4.39739 4.70125V5.33166C4.8435 5.32747 5.1786 5.33166 5.59329 5.33166C5.83833 5.33375 6.04149 5.2793 6.13992 5.03635C6.26768 4.72638 6.06452 4.34101 5.93467 4.10853L5.10739 2.62571L5.55768 2.36182V2.36601Z" fill="white"/>
<path d="M4.01372 2.88568C3.91529 2.71394 3.74355 2.62598 3.50269 2.62598C3.26184 2.62598 3.0901 2.71394 2.99166 2.88568C2.89741 3.05114 2.84924 3.2899 2.84924 3.59149C2.84924 3.89308 2.89741 4.12975 2.99166 4.2952C3.0901 4.46694 3.26184 4.55281 3.50269 4.55281C3.74355 4.55281 3.91529 4.46694 4.01372 4.2952C4.10797 4.12975 4.15614 3.89308 4.15614 3.59149C4.15614 3.2899 4.10797 3.05114 4.01372 2.88568ZM3.32257 3.11606C3.3519 3.02391 3.41054 2.97993 3.50269 2.97993C3.59484 2.97993 3.65139 3.02182 3.68071 3.11397C3.71213 3.2145 3.72889 3.37367 3.72889 3.5873C3.72889 3.80093 3.71213 3.94753 3.68071 4.05435C3.65139 4.15069 3.59484 4.19677 3.50269 4.19677C3.41054 4.19677 3.35399 4.15069 3.32257 4.05435C3.28906 3.94753 3.27231 3.79045 3.27231 3.5873C3.27231 3.38414 3.28906 3.2145 3.32257 3.11397V3.11606Z" fill="white"/>
</svg>
