<svg width="90" height="50" viewBox="0 0 90 50" fill="none" xmlns="http://www.w3.org/2000/svg">
<path d="M37.44 24.93C36.86 24.53 36.07 24.3 35.53 23.93C34.96 23.54 34.58 22.91 34.03 22.53C33.54 22.19 32.9 22.05 32.45 21.67C31.77 21.1 31.07 20.54 30.4 19.94C29.73 19.34 29.22 18.58 28.54 18.01C27.86 17.44 27.17 16.85 26.44 16.34C25.74 15.85 25 15.43 24.31 14.92C23.62 14.41 22.99 13.84 22.32 13.31C21.65 12.78 20.96 12.28 20.31 11.73C19.66 11.18 19.08 10.55 18.45 9.97C17.82 9.39 17.12 8.89001 16.51 8.29001C15.9 7.69001 15.39 7 14.8 6.38C14.29 5.85001 13.84 5.28 13.37 4.69C12.9 4.1 12.47 3.52998 12.02 2.91998C11.57 2.30998 10.96 1.82998 10.49 1.22998C10.94 0.79998 11.34 0.45 11.82 0C12.35 0.58 12.89 0.969991 13.16 1.45999C13.61 2.26999 14.06 3.05998 14.64 3.75998C15.22 4.45998 15.99 4.95999 16.7 5.54999C17.52 6.22999 18.11 7.18999 18.87 7.92999C19.49 8.52999 20.15 9.08001 20.83 9.60001C21.51 10.12 22.27 10.53 22.96 11.04C23.65 11.55 24.2 12.23 24.85 12.79C25.42 13.28 26 13.76 26.57 14.24C26.89 14.51 27.28 14.69 27.65 14.88C28.34 15.23 28.88 15.82 29.5 16.26C30.12 16.7 30.89 16.97 31.48 17.46C32.07 17.95 32.49 18.63 33.07 19.14C33.31 19.35 33.74 19.33 34.02 19.49C34.3 19.65 34.69 19.76 34.89 20C35.52 20.76 36.17 21.46 36.97 21.99C37.77 22.52 38.69 22.9 39.4 23.54C39.99 24.08 40.49 23.51 41.01 23.28C41.84 22.9 42.8 22.78 43.62 22.37C44.44 21.96 45.13 21.28 45.97 20.91C46.69 20.59 47.55 20.57 48.27 20.25C48.99 19.93 49.64 19.46 50.37 19.14C51.1 18.82 51.83 18.54 52.55 18.23C53.27 17.92 54 17.6 54.72 17.29C55.44 16.98 56.12 16.56 56.84 16.24C57.58 15.91 58.36 15.66 59.1 15.33C59.84 15 60.55 14.6 61.29 14.28C62.03 13.96 62.82 13.74 63.57 13.43C64.32 13.12 65.11 12.89 65.88 12.62C66.65 12.35 67.35 11.88 68.1 11.57C68.83 11.27 69.57 11 70.29 10.67C71.01 10.34 71.72 9.97999 72.46 9.70999C73.14 9.45999 73.85 9.32999 74.55 9.14999C75.25 8.96999 75.97 8.87998 76.66 8.66998C77.11 8.53998 77.52 8.28 77.96 8.13C78.66 7.9 79.33 7.61 80.03 7.38C80.73 7.15 81.42 6.92 82.12 6.69C82.82 6.46 83.52 6.27001 84.22 6.04001C84.48 5.96001 84.81 5.74 85.17 5.59C84.73 5.07 83.96 4.82 83.4 4.44C82.84 4.06 82.3 3.58 82.11 2.81C82.42 2.81 82.83 2.64 82.99 2.72C83.82 3.18 84.65 3.58999 85.53 3.89999C86.41 4.20999 87.29 4.54999 88.21 4.76999C89.08 4.96999 89.63 5.52999 89.64 6.67999C88.87 6.92999 88.03 7.04001 87.27 7.29001C86.51 7.54001 85.75 7.83 84.98 8.09C84.21 8.35 83.44 8.59001 82.68 8.85001C81.92 9.11001 81.19 9.48998 80.43 9.75998C79.67 10.03 78.86 10.17 78.1 10.45C77.34 10.73 76.61 11.09 75.85 11.37C75.09 11.65 74.33 11.91 73.57 12.2C72.81 12.49 72.07 12.81 71.32 13.1C70.57 13.39 69.88 13.86 69.13 14.16C68.38 14.46 67.52 14.48 66.77 14.78C66.02 15.08 65.28 15.41 64.53 15.72C63.78 16.03 63.04 16.34 62.29 16.65C61.54 16.96 60.8 17.28 60.05 17.59C59.3 17.9 58.57 18.25 57.83 18.57C57.09 18.89 56.39 19.31 55.65 19.64C54.91 19.97 54.14 20.22 53.4 20.55C52.66 20.88 52 21.37 51.26 21.71C50.52 22.05 49.79 22.39 49.06 22.73C48.33 23.07 47.6 23.41 46.87 23.76C46.14 24.11 45.35 24.34 44.63 24.69C43.91 25.04 43.14 25.44 42.41 25.8C43.18 26.43 43.87 27.18 44.6 27.79C45.33 28.4 46.15 28.99 46.94 29.55C47.55 29.99 48.3 30.24 48.92 30.67C49.54 31.1 50.02 31.73 50.64 32.16C51.26 32.59 51.98 32.87 52.6 33.29C53.22 33.71 53.76 34.27 54.38 34.69C55 35.11 55.67 35.47 56.3 35.89C56.9 36.29 57.49 36.72 58.1 37.12C58.71 37.52 59.3 37.93 59.91 38.33C60.52 38.73 61.09 39.18 61.7 39.57C62.31 39.96 62.95 40.31 63.56 40.7C64.17 41.09 64.79 41.47 65.39 41.87C66.03 42.29 66.76 42.58 67.38 43.04C68 43.5 68.51 44.13 69.14 44.59C69.35 44.29 69.52 44.02 69.69 43.78C70.34 43.71 70.76 44.03 70.91 44.63C71.08 45.31 71.34 46.01 71.4 46.71C71.47 47.46 70.01 48.16 69.26 47.75C68.97 47.59 68.67 47.4 68.42 47.19C67.83 46.67 67.34 46.02 66.72 45.54C66.1 45.06 65.39 44.68 64.75 44.23C64.11 43.78 63.58 43.15 62.92 42.72C62.26 42.29 61.5 42.01 60.84 41.59C60.18 41.17 59.5 40.76 58.84 40.34C58.16 39.9 57.59 39.28 56.92 38.82C56.25 38.36 55.47 38.05 54.8 37.59C54.13 37.13 53.39 36.8 52.68 36.4C52.08 36.06 51.54 35.6 50.99 35.19C50.44 34.78 49.89 34.36 49.33 33.96C48.77 33.56 48.21 33.22 47.58 32.91C46.81 32.53 46.2 31.86 45.52 31.29C44.84 30.72 44.08 30.3 43.4 29.78C42.8 29.32 42.29 28.76 41.66 28.29C41.07 27.85 40.5 27.2 39.85 26.72C39.17 27.1 38.48 27.65 37.8 28.03C37.12 28.41 36.4 28.69 35.72 29.07C35.04 29.45 34.4 29.9 33.72 30.28C33.04 30.66 32.45 31.19 31.77 31.58C31.09 31.97 30.39 32.31 29.72 32.7C29.05 33.09 28.27 33.3 27.59 33.69C26.94 34.06 26.34 34.54 25.69 34.92C25.04 35.3 24.42 35.72 23.77 36.1C23.12 36.48 22.43 36.78 21.79 37.17C21.15 37.56 20.44 37.85 19.81 38.25C19.16 38.66 18.64 39.24 18 39.66C17.36 40.08 16.68 40.43 16.04 40.84C15.4 41.25 14.82 41.76 14.19 42.18C13.56 42.6 12.82 42.87 12.18 43.28C11.54 43.69 10.99 44.25 10.35 44.66C9.71 45.07 8.95 45.3 8.3 45.71C7.65 46.12 7.03 46.57 6.38 46.97C5.73 47.37 5.09 47.79 4.44 48.19C3.79 48.59 3.19 49.08 2.54 49.48C1.61 50.05 1.65 49.91 0.849998 49.07C0.659998 48.87 0.23 48.76 0 48.54C0.24 47.82 0.71 47.27 1.32 46.81C1.99 46.32 2.73 45.92 3.46 45.54C4.19 45.16 4.95 44.86 5.66 44.44C6.24 44.1 6.84 43.78 7.4 43.39C7.96 43 8.59 42.72 9.14 42.33C9.84 41.83 10.4 41.13 11.1 40.63C11.8 40.13 12.49 39.62 13.19 39.12C13.89 38.62 14.59 38.12 15.3 37.63C15.83 37.26 16.67 37.34 17.21 36.98C17.83 36.56 18.38 36.02 19.01 35.63C19.64 35.24 20.34 34.93 20.99 34.55C21.64 34.17 22.29 33.81 22.95 33.44C23.61 33.07 24.22 32.64 24.87 32.26C25.52 31.88 26.22 31.59 26.86 31.21C27.62 30.76 28.4 30.34 29.15 29.9C29.9 29.46 30.61 28.9 31.37 28.45C32.13 28 32.85 27.49 33.61 27.04C34.46 26.55 35.3 26.04 36.16 25.56C36.47 25.39 36.98 25.26 37.44 24.93Z" fill="black"/>
</svg>
